<svg width="42" height="42" viewBox="0 0 42 42" fill="none" xmlns="http://www.w3.org/2000/svg">
<rect opacity="0.1" width="42" height="42" rx="21" fill="#B4DBDB"/>
<mask id="mask0_131_7354" style="mask-type:alpha" maskUnits="userSpaceOnUse" x="0" y="0" width="42" height="42">
<circle cx="21" cy="21" r="21" fill="#D9D9D9"/>
</mask>
<g mask="url(#mask0_131_7354)">
<g clip-path="url(#clip0_131_7354)">
<path d="M30.1907 31.87C30.1907 31.87 32.7499 32.7 33.2971 35.0828C33.8422 37.4656 32.9103 40.3406 32.682 42.2951C32.4557 44.2475 32.5894 49.0687 32.7828 49.8822C32.9762 50.6957 34.3421 53.2247 34.8914 56.7073C35.4407 60.1899 36.7038 66.08 37.0083 67.8614C37.3128 69.6429 37.6769 74.1882 37.6152 74.9666C37.5534 75.7451 35.3584 78.373 34.7906 78.7561C34.2228 79.1392 33.6921 78.7581 33.6921 78.7581C33.6921 78.7581 33.3115 78.7829 33.079 78.4801C32.8445 78.1753 33.0975 77.6193 33.0975 77.6193C33.0975 77.6193 32.8054 77.7263 32.5462 77.5369C32.287 77.3474 32.7108 76.3753 32.7108 76.3753C32.7108 76.3753 32.3137 76.2868 32.2541 75.6833C32.1944 75.0779 33.3382 73.6218 33.4329 72.971C33.5275 72.3202 33.1346 69.8756 33.2066 68.9427C33.2786 68.0097 33.941 67.0026 33.941 67.0026L28.2734 54.862L27.2612 45.9198L27.7241 36.3432L30.1907 31.8721V31.87Z" fill="#F2A18B"/>
<path d="M31.8506 43.8418C32.0687 45.5841 31.2438 49.3035 31.0895 50.8605C30.9352 52.4174 30.2686 56.7238 29.9889 58.8471C29.7111 60.9704 30.4497 68.2569 30.4456 70.1187C30.4414 71.9804 29.1989 72.8907 27.4276 77.0591C25.6564 81.2275 22.7681 81.7609 22.7681 81.7609C22.7681 81.7609 18.6269 100.902 17.8801 103.744C17.1334 106.586 15.574 107.889 14.7737 108.853C13.9735 109.817 13.0189 115.26 12.5396 117.606C12.3668 118.455 12.2681 119.661 12.2249 120.912C10.7169 121.336 9.20487 121.863 7.72779 122.495C7.53853 119.159 6.99131 112.562 7.17029 110.328C7.39247 107.537 9.90844 103.48 10.3898 101.849C10.8692 100.218 10.5709 89.5437 10.4639 85.748C10.3569 81.9524 10.0483 78.3401 9.94135 74.4786C9.83232 70.617 12.6939 66.1068 12.7906 64.5251C12.8873 62.9434 11.4308 59.259 11.2353 56.3304C11.0399 53.4019 7.14149 45.0198 7.34515 43.2074C7.54882 41.3951 8.62062 39.4468 10.0504 38.1947C11.4801 36.9404 14.9568 33.7421 15.6542 31.4664C16.3516 29.1906 15.8435 25.5495 15.8435 25.5495C15.8435 25.5495 20.0813 29.1391 22.0275 30.1565C23.9715 31.1739 27.6004 30.9309 29.9354 31.7959C32.2703 32.6609 32.4616 35.4206 32.0522 37.9434C31.6449 40.4663 31.6346 42.1015 31.8506 43.8459V43.8418Z" fill="#FAB69B"/>
<path d="M26.3228 30.8423C26.3228 30.8423 29.2687 31.2666 30.4886 31.9791C31.7085 32.6917 32.1303 33.8821 32.229 35.0539C32.3278 36.2258 32.192 38.0196 32.0459 39.9205C31.8999 41.8214 31.8999 45.1989 31.8608 46.1484C31.8217 47.0978 30.8383 54.8558 30.6347 58.0398C30.431 61.2237 30.7293 69.0127 30.9124 70.7962C30.9124 70.7962 30.1944 75.6318 26.1273 77.7408C22.0602 79.8497 14.6749 77.7778 12.8727 76.9025C11.0706 76.0273 9.59766 74.2891 9.59766 74.2891C9.59766 74.2891 11.6137 67.5381 11.4944 63.3388C11.3771 59.1395 10.3671 53.614 10.079 50.916C9.78898 48.2181 5.37421 42.9665 8.79741 39.4509C12.2206 35.9354 14.6913 32.7679 14.6913 32.7679C14.6913 32.7679 17.2361 35.9725 20.5112 37.375C23.7862 38.7775 25.5472 36.0487 25.5739 34.6503C25.6027 33.153 24.5412 28.27 24.5412 28.27L26.3207 30.8361L26.3228 30.8423Z" fill="#B4DBDB"/>
<path d="M29.7877 27.4256C29.5614 27.819 29.3166 28.7334 29.1376 29.9959C28.9566 31.2583 28.3826 33.3817 26.7759 33.0048C24.9574 32.5785 19.3618 31.0977 17.9176 29.4666C16.9178 28.3359 14.5047 25.2447 13.511 23.9039C12.5195 22.5632 10.38 18.8191 11.8221 14.3994C13.2642 9.9798 17.8065 8.28485 21.6062 8.93358C25.4058 9.58232 29.0985 14.1832 29.9008 15.837C30.7032 17.4907 30.8965 20.512 30.8513 20.8641C30.8081 21.2163 30.2032 21.8012 30.3946 22.8495C30.5859 23.8978 30.4069 23.9616 30.2999 24.9769C30.193 25.9943 30.3041 26.5318 29.7877 27.4236V27.4256Z" fill="#FDC6AA"/>
<path d="M29.6172 31.6208C29.6172 31.6208 31.7237 31.9359 32.8243 33.7729C33.925 35.6121 33.6328 37.2226 33.5547 38.2214C33.4765 39.2203 32.8614 44.579 32.8614 44.579C32.8614 44.579 33.0362 47.6374 29.2839 48.2408C25.5315 48.8442 23.7953 45.3328 23.7953 45.3328L23.7006 39.4242L29.6172 31.6208Z" fill="#B4DBDB"/>
<path d="M7.98356 40.9296C7.15039 41.2447 5.8811 43.3578 5.63835 45.7076C5.39354 48.0554 3.6408 61.8725 3.50502 63.0896C3.36924 64.3068 4.68791 80.1524 4.75169 82.3808C4.81341 84.6071 4.85249 87.3338 5.19605 88.17C5.5396 89.0061 5.74532 88.9732 5.79469 89.1029C5.84612 89.2327 5.99013 89.7372 6.37894 89.8299C6.76776 89.9226 6.8521 89.9864 7.03519 90.1306C7.21828 90.2768 8.88462 91.3951 9.15 91.5187C9.41744 91.6423 11.7071 91.5969 11.7071 91.5969C11.7071 91.5969 11.8285 90.9255 11.6536 90.7237C11.4788 90.5219 10.7094 90.1862 10.481 89.7414C10.2527 89.2965 10.2815 87.9887 10.3926 87.5707C10.5036 87.1546 10.7114 86.9137 11.0694 87.27C11.4273 87.6263 11.6022 87.8384 11.6824 88.3615C11.7627 88.8867 12.4292 89.2141 12.5999 89.2388C12.7707 89.2615 13.0155 88.9917 13.0155 88.9917C13.0155 88.9917 13.0299 88.1638 12.9579 87.5913C12.8859 87.0187 12.6596 86.0013 12.5485 85.6945C12.4374 85.3876 8.44849 82.8297 8.26746 82.1089C8.08848 81.3902 8.32712 73.1646 8.22632 69.612C8.12757 66.0594 7.78813 64.039 7.78813 64.039C7.78813 64.039 13.68 52.0529 13.7479 47.4808C13.8158 42.9088 10.8842 39.8319 7.98356 40.9276V40.9296Z" fill="#FDC6AA"/>
<path d="M8.30006 40.0729C8.30006 40.0729 6.89499 41.358 6.09062 43.09C5.28625 44.8221 4.20004 55.5355 4.20004 55.5355C4.20004 55.5355 4.11775 56.3922 6.14616 57.7247C8.17457 59.0572 10.5836 58.7029 10.5836 58.7029C10.5836 58.7029 12.9946 53.3998 14.0664 48.457C15.1362 43.5122 12.5132 40.0255 8.30006 40.0729Z" fill="#C5E8E8"/>
<path d="M29.8307 15.7381C29.8307 15.7381 30.1742 14.488 28.6457 13.2708C27.1172 12.0537 25.276 15.7999 22.937 17.1447C20.5979 18.4875 17.5389 18.1127 17.5389 18.1127C17.5389 18.1127 16.4156 19.4245 16.6646 20.4563C16.9135 21.4881 17.5389 22.2378 17.6314 22.9236C17.724 23.6115 17.5389 24.7977 17.5389 24.7977C17.5389 24.7977 17.0719 24.6721 16.7592 24.4538C16.4465 24.2355 16.1359 23.4549 15.387 23.111C14.6382 22.7671 13.2969 22.3305 13.048 22.7362C12.7991 23.1419 14.6382 25.9222 14.6382 25.9222C14.6382 25.9222 11.861 23.6733 11.2068 21.7044C10.5526 19.7355 10.0218 15.5507 10.3962 13.3326C10.7686 11.1145 13.264 7.55371 18.7238 7.89764C24.1837 8.24157 28.3022 10.1775 29.6743 11.8024C31.0465 13.4273 30.9848 15.1758 29.8307 15.7381Z" fill="#965837"/>
<path d="M29.9256 15.7463C29.9256 15.7463 30.3226 14.8319 29.6684 13.7548C29.0142 12.6777 27.891 11.8807 26.0415 13.5674C24.1921 15.2541 23.3507 16.8934 22.6718 17.2456C22.6718 17.2456 23.7251 17.1509 24.9656 16.0285C26.2061 14.904 27.9836 14.037 29.9256 15.7463Z" fill="#734026"/>
<path d="M16.3865 24.9749C16.3865 24.9749 15.3168 22.9236 13.8109 22.695C12.305 22.4664 11.7743 23.7248 12.2845 24.6165C12.7946 25.5083 14.0948 27.0797 14.7408 27.508C15.3867 27.9364 15.613 28.3071 16.152 28.2124C16.6889 28.1156 16.512 27.5801 16.2734 27.2362C16.0348 26.8922 16.2713 26.1694 16.366 25.7595C16.4626 25.3518 16.3845 24.9749 16.3845 24.9749H16.3865Z" fill="#F2A18B"/>
</g>
</g>
<defs>
<clipPath id="clip0_131_7354">
<rect width="34.125" height="129.5" fill="white" transform="matrix(-1 0 0 1 37.6211 7.875)"/>
</clipPath>
</defs>
</svg>
