<?xml version="1.0" encoding="utf-8"?>
<!-- Generator: Adobe Illustrator 27.5.0, SVG Export Plug-In . SVG Version: 6.00 Build 0)  -->
<svg version="1.1" xmlns="http://www.w3.org/2000/svg" xmlns:xlink="http://www.w3.org/1999/xlink" x="0px" y="0px"
	 viewBox="0 0 800 800" style="enable-background:new 0 0 800 800;" xml:space="preserve">
<g id="Background">
	<linearGradient id="SVGID_1_" gradientUnits="userSpaceOnUse" x1="400" y1="649.078" x2="400" y2="-42.4915">
		<stop  offset="0" style="stop-color:#FFFFFF"/>
		<stop  offset="1" style="stop-color:#B0E2ED"/>
	</linearGradient>
	<rect y="1.013" style="fill:url(#SVGID_1_);" width="800" height="800"/>
</g>
<g id="Objects">
	<g>
		<defs>
			<rect id="SVGID_00000024720698670694930260000005506284775169465253_" y="1.013" width="800" height="800"/>
		</defs>
		<clipPath id="SVGID_00000075136960664002809660000009736502860089319354_">
			<use xlink:href="#SVGID_00000024720698670694930260000005506284775169465253_"  style="overflow:visible;"/>
		</clipPath>
		<g style="clip-path:url(#SVGID_00000075136960664002809660000009736502860089319354_);">
			<g>
				<path style="fill:#FFFFFF;" d="M41.093,164.798c-0.842-13.476,29.89-10.5,32.07,0c1.68-15,11.071-9.035,13.376-4.517
					c0.804-29.483,33.304-31.983,36.804-9.483c8-16.5,24-2,22.75,4.5c16.25-18.5,21.083,0.381,16.167,6.441
					c25.083-7.941,39.417,21.869-4,7.714c-4.417,20.845-34.919,20.874-44.668,2.109c-10.249,16.736-31.129,13.116-36.845,1.323
					C63.343,184.798,41.843,176.798,41.093,164.798z"/>
				<path style="fill:#FFFFFF;" d="M172.759,81.708c-1.624-9.388,14.327-7.115,18.874,0c-1.383-24.901,18.776-6.257,18.776-6.257
					c-8.3-31.095,37.945-30.928,40.909-6.703c7.115-19.649,28.459-13.909,29.051-2.253c11.858-17.396,27.273-0.202,24.308,9.284
					c26.811-11.19,49.605,35.733-15.217,16.681c-10.277,20.078-34.131,20.238-45.327,0c-12.381,22.45-27.994,7.035-30.859-1.858
					C200.329,103.052,175.426,97.123,172.759,81.708z"/>
				<path style="fill:#FFFFFF;" d="M-49.977,149.967c0-15.67,13.955-10.999,16.585-8.13c0,0-8.695-22.441,8.978-31.804
					s36.088,10.285,37.689,21.679c0,0,5.605-12.938,16.013-15.184s17.615,6.028,16.814,14.301c0,0,28.868,2.685,29.89,13.796
					c0.703,7.647-30.691,2.243-30.691,2.243s-15.922,13.021-28.778,5.03c0,0-29.725,11.579-44.51,2.594
					c0,0-15.55,11.013-22.774,3.416c0,0-13.388,2.374-16.831-1.829C-71.035,151.874-57.984,145.62-49.977,149.967z"/>
				<path style="fill:#FFFFFF;" d="M652.391,95.318c0-15.67,13.955-10.999,16.585-8.13c0,0-8.695-22.441,8.978-31.804
					c17.673-9.363,36.088,10.285,37.689,21.679c0,0,5.605-12.938,16.013-15.184c10.409-2.246,17.615,6.028,16.814,14.301
					c0,0,28.868,2.685,29.89,13.795c0.703,7.647-30.69,2.243-30.69,2.243s-15.922,13.021-28.778,5.03c0,0-29.725,11.579-44.51,2.594
					c0,0-15.55,11.013-22.774,3.416c0,0-13.388,2.374-16.831-1.829C631.333,97.226,644.385,90.972,652.391,95.318z"/>
				<path style="fill:#FFFFFF;" d="M542.33,71.329c0,0-8.341-6.438,4.09-10.6c7.3-2.444,14.644-0.499,14.644-0.499
					s8.189-11.93,17.993-4.393c0,0,5.035-13.125,21.336-12.64s16.098,18.161,16.098,18.161c-1.52,1.144,10.624-14.957,17.833,1.269
					c0,0,16.64,1.508,17.943,8.662c0.947,5.203-20.943,4.293-20.943,4.293s-23.084,7.888-37.471-0.178
					c0,0-22.714,10.213-34.719-1.891C559.133,73.512,548.438,76.784,542.33,71.329z"/>
			</g>
			<g>
				<g>
					<polygon style="fill:#89C8CE;" points="617.048,437.554 620.382,237.032 667.382,237.032 667.382,452.954 					"/>
					<polygon style="fill:#89C8CE;" points="252.066,383.866 277.525,385.333 277.525,301.345 309.5,301.345 309.5,382.783 
						353.354,380.175 360.333,439.522 218.5,433.143 					"/>
					<polygon style="fill:#89C8CE;" points="65.14,344.993 62.495,279.519 57.32,279.519 65.14,265.348 122.362,265.348 
						127.667,279.519 122.362,279.519 127.667,380.175 63.245,380.175 					"/>
					<polygon style="fill:#89C8CE;" points="-34.592,490.89 -9.134,492.358 -9.134,408.37 22.842,408.37 22.842,489.808 
						66.696,487.2 73.675,546.547 -68.158,540.168 					"/>
				</g>
				<polygon style="fill:#5C8E99;" points="-11,532.828 13,532.828 13,312.784 77.831,312.784 77.831,515.25 164.645,510.061 
					158.83,279.519 147.658,279.519 143.36,271.378 266.716,271.378 264.807,275.636 259.667,279.519 259.667,429.724 
					352.667,420.741 352.7,338.862 343.806,338.862 361.528,319.768 427.203,314.034 439.823,331.013 427.203,331.013 
					435.999,484.565 544.098,484.221 541,416.458 606.442,417.833 615.965,487.706 745.694,495.689 749.382,273.735 817,271.378 
					817,607.667 -11,607.667 				"/>
				<polygon style="fill:#3F7882;" points="-11,555 22.75,556.045 22.75,582.807 154.918,571.89 163.904,538.5 236.425,534.757 
					235.362,578.083 412.931,571.89 493.041,512.863 622.319,514.143 624.108,578.083 829.475,572.728 829.475,607.261 -17,623 				
					"/>
			</g>
			<g>
				<g>
					<rect x="-3.228" y="616.853" style="fill:#515456;" width="803.228" height="184.16"/>
					<path style="fill:#777A7C;" d="M19.25,654.304C9.96,659.352,8.5,764,22.75,785S773,789,782,785s8-127.152,0-136.076
						C774,640,55.5,634.609,19.25,654.304z"/>
					<g>
						<polygon style="fill:#EDEDED;" points="152.487,708.115 70.25,708.115 66.25,711.885 152.487,711.885 						"/>
						<polygon style="fill:#EDEDED;" points="345.368,708.115 262.131,708.115 259.131,711.885 345.368,711.885 						"/>
						<polygon style="fill:#EDEDED;" points="536.249,708.115 452.011,708.115 452.011,711.885 538.249,711.885 						"/>
						<polygon style="fill:#EDEDED;" points="727.129,708.115 644.892,708.115 644.892,711.885 731.129,711.885 						"/>
					</g>
				</g>
				<g>
					<polygon style="fill:#AD9786;" points="-1.129,630.208 805,617.052 805,628 -1.129,639 					"/>
					<polygon style="fill:#D1BEAD;" points="-1.129,598.208 805,590.104 805,623 -1.129,634 					"/>
					<path style="fill:#EAD2BE;" d="M9,628.941c-6.519-2.979-0.352-24.336,3.156-25.719s773.719-11.109,780.55-8.009
						c6.831,3.1,1.185,25.592-4.325,24.89C782.87,619.402,13.667,631.073,9,628.941z"/>
				</g>
			</g>
			<g>
				<g>
					<g>
						<g>
							<path style="fill:#D6683C;" d="M195.917,410.239c0,0-3,157.667-2.667,178.667l-146.667,7c0,0-15.667-178.667-16.333-183.333
								L195.917,410.239z"/>
							<polygon style="fill:#FF8257;" points="46.583,598.905 41.942,545.932 193.715,539.902 193.715,598.826 							"/>
						</g>
						<polygon style="fill:#FF8257;" points="27.75,412.572 30.25,424.072 195.917,420.572 197.25,410.697 						"/>
						<polygon style="fill:#FF8257;" points="34,484.322 35.5,492.572 195.917,488.447 197.25,479.072 						"/>
					</g>
					<g>
						<g>
							<g>
								<g>
									<polygon style="fill:#DDDCDB;" points="152.537,347.606 146.011,340.961 142.757,330.365 144.669,329.779 147.779,339.907 
										153.963,346.205 									"/>
								</g>
								<g>
									<polygon style="fill:#DDDCDB;" points="158.614,343.83 150.547,336.893 147.527,327.203 149.436,326.608 152.286,335.751 
										159.918,342.314 									"/>
								</g>
								<g>
									<polygon style="fill:#DDDCDB;" points="164.301,340.694 155.718,333.999 152.658,323.861 154.573,323.283 157.449,332.812 
										165.532,339.117 									"/>
								</g>
								<g>
									<polygon style="fill:#DDDCDB;" points="170.433,334.613 162.249,330.087 159.462,321.205 161.371,320.606 163.918,328.724 
										171.4,332.863 									"/>
								</g>
							</g>
							<path style="fill:#BFBCBA;" d="M140.083,360.572c0,0-0.167-4.833,0-5.167c0.167-0.333,7.333,0,7.333,0v5.167H140.083z"/>
							<polygon style="fill:#BFBCBA;" points="143.713,357.239 137.083,327.905 140.398,326.905 145.75,357.239 							"/>
							<polygon style="fill:#BFBCBA;" points="135.25,345.739 165.75,325.739 167.583,328.239 135.917,346.905 							"/>
						</g>
						<polygon style="fill:#FFD194;" points="24.25,408.072 26,415.572 197.75,413.072 200.75,405.822 						"/>
						<path style="fill:#AF4F38;" d="M46.333,365.083l-24.667,42.989L203,405.822c0,0-31.199-39.75-34.8-47.25
							C168.2,358.572,51.135,365.333,46.333,365.083z"/>
					</g>
					<g>
						<g>
							<polygon style="fill:#FFA15A;" points="104.077,471.272 100.15,434.486 124.843,433.746 123.933,471.272 							"/>
							<polygon style="fill:#FFD194;" points="106.162,471.272 101.957,436.1 123.037,435.392 122.26,471.272 							"/>
							<polygon style="fill:#8695A3;" points="106.995,450.438 106.162,438.272 119.912,437.605 118.995,450.438 							"/>
							<polygon style="fill:#8695A3;" points="108.395,468.473 107.329,453.438 119.162,453.438 119.162,468.473 							"/>
							<polygon style="fill:#FFA15A;" points="101.957,470.433 126.016,470.433 125.406,473.6 102.567,473.6 							"/>
						</g>
						<g>
							<polygon style="fill:#FFA15A;" points="155.41,470.107 151.484,433.322 176.177,432.582 175.266,470.107 							"/>
							<polygon style="fill:#FFD194;" points="157.495,470.107 153.29,434.936 174.37,434.228 173.593,470.107 							"/>
							<polygon style="fill:#8695A3;" points="158.329,449.274 157.495,437.107 171.245,436.441 170.329,449.274 							"/>
							<polygon style="fill:#8695A3;" points="159.728,467.309 158.662,452.274 170.495,452.274 170.495,467.309 							"/>
							<polygon style="fill:#FFA15A;" points="153.29,469.269 177.35,469.269 176.74,472.436 153.9,472.436 							"/>
						</g>
						<g>
							<polygon style="fill:#FFA15A;" points="52.41,471.037 48.484,434.251 73.177,433.511 72.266,471.037 							"/>
							<polygon style="fill:#FFD194;" points="54.495,471.037 50.29,435.865 71.37,435.157 70.593,471.037 							"/>
							<polygon style="fill:#8695A3;" points="55.329,450.203 54.495,438.037 68.245,437.37 67.329,450.203 							"/>
							<polygon style="fill:#8695A3;" points="56.728,468.238 55.662,453.203 67.495,453.203 67.495,468.238 							"/>
							<polygon style="fill:#FFA15A;" points="50.29,470.198 74.35,470.198 73.74,473.365 50.9,473.365 							"/>
						</g>
					</g>
					<g>
						<g>
							<polygon style="fill:#FFA15A;" points="108.402,533.247 104.475,496.462 129.169,495.722 128.258,533.247 							"/>
							<polygon style="fill:#FFD194;" points="110.487,533.247 106.282,498.076 127.362,497.368 126.585,533.247 							"/>
							<polygon style="fill:#8695A3;" points="111.321,512.414 110.487,500.247 124.237,499.58 123.321,512.414 							"/>
							<polygon style="fill:#8695A3;" points="112.72,530.449 111.654,515.414 123.487,515.414 123.487,530.449 							"/>
							<polygon style="fill:#FFA15A;" points="106.282,532.409 130.342,532.409 129.731,535.576 106.892,535.576 							"/>
						</g>
						<g>
							<polygon style="fill:#FFA15A;" points="159.735,532.083 155.809,495.298 180.502,494.557 179.592,532.083 							"/>
							<polygon style="fill:#FFD194;" points="161.821,532.083 157.615,496.911 178.696,496.204 177.919,532.083 							"/>
							<polygon style="fill:#8695A3;" points="162.654,511.25 161.821,499.083 175.571,498.416 174.654,511.25 							"/>
							<polygon style="fill:#8695A3;" points="164.053,529.284 162.987,514.25 174.821,514.25 174.821,529.284 							"/>
							<polygon style="fill:#FFA15A;" points="157.615,531.245 181.675,531.245 181.065,534.411 158.225,534.411 							"/>
						</g>
						<g>
							<polygon style="fill:#FFA15A;" points="56.735,534.012 52.809,497.227 77.502,496.487 76.592,534.012 							"/>
							<polygon style="fill:#FFD194;" points="58.821,534.012 54.615,498.841 75.696,498.133 74.918,534.012 							"/>
							<polygon style="fill:#8695A3;" points="59.654,513.179 58.821,501.012 72.571,500.346 71.654,513.179 							"/>
							<polygon style="fill:#8695A3;" points="61.053,531.214 59.987,516.179 71.821,516.179 71.821,531.214 							"/>
							<polygon style="fill:#FFA15A;" points="54.615,533.174 78.675,533.174 78.065,536.341 55.225,536.341 							"/>
						</g>
					</g>
					<g>
						<g>
							<polygon style="fill:#FFA15A;" points="141.167,548.239 166,547.739 166,590.239 145.5,591.443 							"/>
							<polygon style="fill:#8695A3;" points="144.164,552.01 163.836,551.109 163.836,587.15 148.068,588.201 							"/>
						</g>
						<g>
							<polygon style="fill:#FFA15A;" points="168.904,590.104 167.167,547.167 189.667,547.167 188.75,590.104 							"/>
							<polygon style="fill:#8695A3;" points="171,585.905 170.368,551.949 187.286,551.239 186.149,585.337 							"/>
						</g>
						<g>
							<polygon style="fill:#FFA15A;" points="94.667,551.239 71.054,551.239 73.667,591.443 93.755,591.443 							"/>
							<polygon style="fill:#8695A3;" points="92.836,554.938 74.404,555.46 75.789,588.793 91.619,588.674 							"/>
						</g>
						<g>
							<polygon style="fill:#FFA15A;" points="71.054,592.327 69.5,551.239 46.333,552.428 50.5,592.542 							"/>
							<polygon style="fill:#8695A3;" points="68.857,588.637 66.91,556.241 49.423,556.803 53.202,589.21 							"/>
						</g>
						<g>
							<polygon style="fill:#FFD194;" points="104.283,595.821 100.5,547.068 136.167,545.992 136.167,593.936 							"/>
							<polygon style="fill:#D6683C;" points="105.267,594.074 102.507,548.716 134.917,547.739 134.917,592.322 							"/>
							<polygon style="fill:#FFA15A;" points="107.75,551.239 109.5,569.655 129.169,569.404 129.169,549.256 							"/>
							<polygon style="fill:#8695A3;" points="108.75,552.239 110.487,568.572 127.362,568.572 128.417,551.239 							"/>
							<circle style="fill:#FFBD5C;" cx="130.342" cy="573.572" r="2"/>
							<polygon style="fill:#FFD194;" points="102,597.905 100.5,592.322 139,592.322 138,597.572 							"/>
						</g>
					</g>
				</g>
				<g>
					<g>
						<polygon style="fill:#995919;" points="314.341,398.5 309,413 304.233,413 311.608,398.5 						"/>
						<polygon style="fill:#995919;" points="333.333,398.5 339,414.333 344,414.333 336.667,398.5 						"/>
						<path style="fill:#8BDFE8;" d="M307.833,399.167c0,0-1.333-34.167,0-38.5c1.333-4.333,9.333-8.833,18.667-9.333
							s17.833,5.167,18.167,11.5c0.333,6.333-2.333,36.667-2.833,37.5C341.333,401.167,312.333,401.667,307.833,399.167z"/>
						<g>
							<g>
								<g>
									<path style="fill:#1D1D1B;" d="M308.012,359.577c0,0,1.378,0.164,3.676,0.437c2.299,0.271,5.501,0.791,9.17,1.152
										c0.915,0.133,1.863,0.156,2.832,0.195c0.968,0.044,1.958,0.088,2.963,0.133c2.022-0.082,4.095-0.062,6.187-0.194
										c2.086-0.103,4.187-0.176,6.236-0.216c2.045-0.071,4.051,0.084,5.925,0.159c0,0-0.888,0.072-2.577,0.209
										c-1.686,0.076-4.161,0.359-7.359,0.613c-1.605,0.116-3.377,0.31-5.345,0.345c-0.982,0.027-2.006,0.054-3.072,0.083
										c-1.069-0.065-2.178-0.133-3.328-0.203C318.721,361.936,313.649,360.738,308.012,359.577z"/>
								</g>
							</g>
						</g>
					</g>
					<polygon style="fill:#8DACB5;" points="228.333,592.542 217,418 358.667,420.5 344.642,592.542 					"/>
					<polygon style="fill:#A7CBD3;" points="226.413,592.542 225,579.667 347.01,579.667 345.75,592.542 					"/>
					<g>
						<polygon style="fill:#C0F1F9;" points="269.716,592.542 266.899,541 299.667,541 298.509,592.542 						"/>
						<polygon style="fill:#8695A3;" points="271.716,546 273.258,575 293.333,575 293.333,546 						"/>
						<polygon style="fill:#8695A3;" points="273.624,587.871 273.275,578.667 293.333,578.667 293.333,587.871 						"/>
					</g>
					<polygon style="fill:#8695A3;" points="302.775,544.167 302.775,578.083 340.75,578.083 344.25,542.667 					"/>
					<polygon style="fill:#8695A3;" points="262.5,543.5 265.5,576.5 232,576.5 229.75,544.167 					"/>
					<polygon style="fill:#A7CBD3;" points="344.982,426.355 335.667,529.256 349.767,529.675 358.354,424.335 					"/>
					<polygon style="fill:#A7CBD3;" points="217,420.5 223.883,524.008 235.826,524.008 228.333,420.5 					"/>
					<polygon style="fill:#B3DCE2;" points="362.333,426.667 214,424 211,409 365.333,413.813 					"/>
					<polygon style="fill:#702C1E;" points="220.873,519.359 352.667,518.195 352.667,532.004 222.333,534.333 					"/>
					<g>
						<g>
							<g>
								<polygon style="fill:#568E9B;" points="297.759,507.895 295.967,478.022 327.8,478.022 324.891,507.882 								"/>
								<polygon style="fill:#CEE8ED;" points="299.855,509.017 298.509,480.189 325.258,480.189 322.973,509.005 								"/>
								<polygon style="fill:#8695A3;" points="301.775,483.522 302.441,492.959 320.608,492.959 321.441,483.522 								"/>
								<polygon style="fill:#8695A3;" points="302.775,495.689 303.441,505.356 319.608,505.356 320.441,495.689 								"/>
								<polygon style="fill:#A7CBD3;" points="296.335,512.228 295.601,507.895 327.817,507.895 327.082,511.561 								"/>
							</g>
						</g>
						<g>
							<g>
								<polygon style="fill:#568E9B;" points="246.125,507.331 244.333,477.458 276.166,477.458 273.257,507.318 								"/>
								<polygon style="fill:#CEE8ED;" points="248.221,508.453 246.875,479.625 273.624,479.625 271.339,508.441 								"/>
								<polygon style="fill:#8695A3;" points="250.141,482.958 250.807,492.395 268.974,492.395 269.807,482.958 								"/>
								<polygon style="fill:#8695A3;" points="251.141,495.125 251.807,504.792 267.974,504.792 268.807,495.125 								"/>
								<polygon style="fill:#A7CBD3;" points="244.701,511.664 243.967,507.331 276.183,507.331 275.448,510.997 								"/>
							</g>
						</g>
						<g>
							<g>
								<polygon style="fill:#568E9B;" points="243.217,462.295 241.425,432.422 273.258,432.422 270.349,462.282 								"/>
								<polygon style="fill:#CEE8ED;" points="245.313,463.417 243.967,434.589 270.716,434.589 268.431,463.405 								"/>
								<polygon style="fill:#8695A3;" points="247.233,437.922 247.899,447.359 266.066,447.359 266.899,437.922 								"/>
								<polygon style="fill:#8695A3;" points="248.233,450.089 248.899,459.756 265.066,459.756 265.899,450.089 								"/>
								<polygon style="fill:#A7CBD3;" points="241.793,466.628 241.059,462.295 273.275,462.295 272.54,465.961 								"/>
							</g>
						</g>
						<g>
							<g>
								<polygon style="fill:#568E9B;" points="300.217,462.636 298.425,432.764 330.258,432.764 327.349,462.623 								"/>
								<polygon style="fill:#CEE8ED;" points="302.313,463.758 300.967,434.93 327.716,434.93 325.431,463.746 								"/>
								<polygon style="fill:#8695A3;" points="304.233,438.264 304.899,447.7 323.066,447.7 323.899,438.264 								"/>
								<polygon style="fill:#8695A3;" points="305.233,450.43 305.899,460.097 322.066,460.097 322.899,450.43 								"/>
								<polygon style="fill:#A7CBD3;" points="298.793,466.969 298.059,462.636 330.275,462.636 329.54,466.302 								"/>
							</g>
						</g>
					</g>
					<g>
						<path style="fill:#1E6672;" d="M279.75,554.743l-16.123,0.152l0.04,4.34c0,0,7.583,9.765,16.083-1.057V554.743L279.75,554.743
							z"/>
						<path style="fill:#A4D3D8;" d="M279.75,554.743L279.75,554.743v3.435c0,0,7.417,10.823,18-0.027v-3.577L279.75,554.743z"/>
						<path style="fill:#A4D3D8;" d="M247.625,555.045L247.625,555.045l0.042,4.19c0,0,7.833,9.765,16,0l-0.04-4.34L247.625,555.045
							z"/>
						<path style="fill:#1E6672;" d="M247.625,555.045l-17.037,0.16l0,0l0.412,4.003c0,0,9.5,11.792,16.667,0.026L247.625,555.045
							L247.625,555.045z"/>
						<path style="fill:#A4D3D8;" d="M230.588,556.205L217,556.333c0,0-0.333,7.167,6,7.75s8-3.875,8-3.875L230.588,556.205
							L230.588,556.205z"/>
						<path style="fill:#A4D3D8;" d="M358.667,555C358.667,555,358.899,555.008,358.667,555L358.667,555l-12.917,0.122l0,0v4.029
							c0,0,2.5,3.85,6.917,3.85C357.326,563,359.917,558.558,358.667,555z"/>
						<path style="fill:#1E6672;" d="M345.75,554.122L330,554.27v3.88c0,0,6.5,7.182,15.75,0V554.122L345.75,554.122z"/>
						<path style="fill:#A4D3D8;" d="M314.167,554.419L314.167,554.419l0.333,3.731c0,0,6.5,8.184,15.5,0v-3.88L314.167,554.419z"/>
						<path style="fill:#1E6672;" d="M314.167,554.419l-16.417,0.154v3.577c0,0,9,10.85,16.75,0L314.167,554.419L314.167,554.419z"
							/>
						<polygon style="fill:#C4EBF2;" points="297.429,552.654 294.968,530.335 279.75,530.518 279.75,552.606 279.75,555.743 
							297.75,555.573 297.75,555.564 						"/>
						<polygon style="fill:#34889B;" points="264.655,530.7 263.755,552.763 263.627,555.894 279.75,555.743 279.75,552.606 
							279.75,530.518 						"/>
						<polygon style="fill:#C4EBF2;" points="250.137,530.875 247.909,553.202 247.625,556.045 263.627,555.894 263.755,552.763 
							264.655,530.7 						"/>
						<polygon style="fill:#34889B;" points="235.826,531.047 230.999,554.232 230.588,556.205 247.625,556.045 247.909,553.202 
							250.137,530.875 						"/>
						<polygon style="fill:#34889B;" points="314.167,555.419 313.792,552.855 310.545,530.147 294.968,530.335 297.429,552.654 
							297.75,555.564 297.75,555.573 						"/>
						<polygon style="fill:#C4EBF2;" points="224.349,531.185 217,556.333 230.588,556.205 230.999,554.232 235.826,531.047 						
							"/>
						<polygon style="fill:#C4EBF2;" points="358.311,553.987 349.767,529.675 338.751,529.808 345.321,553.57 345.75,555.122 
							358.667,555 						"/>
						<polygon style="fill:#34889B;" points="345.321,553.57 338.751,529.808 325.312,529.97 329.61,553.164 330,555.27 
							345.75,555.122 						"/>
						<polygon style="fill:#C4EBF2;" points="329.61,553.164 325.312,529.97 310.545,530.147 313.792,552.855 314.167,555.419 
							330,555.27 						"/>
					</g>
					<polygon style="fill:#79AAB2;" points="224,597 223.5,590.502 348.5,590.502 348.01,595 					"/>
				</g>
				<g>
					<g>
						<path style="fill:#BFBFBF;" d="M602.137,382.783c0,0-3.693,2.668-3.693,5.335c0,2.667,9,184,8,187.667s-9.667,5-9.667,5v4.667
							c0,0,15.059-2.004,14.657-9.667c-0.348-6.622-7.039-145.964-8.85-183.666C602.301,386.197,602.137,382.783,602.137,382.783z"
							/>
						<path style="fill:#FFE3B6;" d="M612.111,588.659l-11.167-209.542l171.5,4c0,0-19.5,197.083-21,205.542
							C751.444,588.659,620.277,589.701,612.111,588.659z"/>
					</g>
					<g>
						<path style="fill:#AF4F38;" d="M613.745,301.345c0,0-19.301,71.272-22.301,77.772c0,0,181,5.5,189,6c0,0-23.5-62.5-25-76
							C755.444,309.118,624.513,302.825,613.745,301.345z"/>
						<path style="fill:#FFF2DE;" d="M594.777,379.318l5.552,7.139c0,0,170.244,5.447,170.346,4.416l5.768-5.756L594.777,379.318z"
							/>
					</g>
					<g>
						<polygon style="fill:#FFE3B6;" points="725.111,316.118 726.444,282.118 743.111,282.118 739.444,316.118 						"/>
						<path style="fill:#AF4F38;" d="M722.111,282.118h24.667l-2.333-12.667c0,0-14.333-0.667-16.333,0L722.111,282.118z"/>
						<path style="fill:#B0BBC6;" d="M729.696,269.239c0,0-4.585-11.788,6.415-13.454c-3.333-8.667,5.667-17.333,13.333-16
							c-16.333-18.333,2.333-23.333,10.667-22.667c-17-12.333-5.667-17.667,0-18.333c0,0-18.667-0.667-20.667-15.333
							c-2-14.667,15.333-18,23.333-18c0,0-5.333-8.333,4-13c9.333-4.667,14.333,5,14.333,5c13.333-11,29-3,30.667,5.667
							c15.667-11,26,7.667,19.667,16.333c10,10.333-6.667,32-22,25.333c3.333,15.667-17.664,22.333-27.832,16
							c5.166,12.667-1.315,27.28-19.168,23.333c2.667,9.333-5.667,10.667-9.333,9.667c3.333,8-5,10-8,9.667c0,0,3.667,4.667-0.667,6
							C740.111,270.784,729.696,269.239,729.696,269.239z"/>
					</g>
					<g>
						<g>
							<path style="fill:#CEAE84;" d="M665.777,444.467c-1.833-14.93-6.106-39.764,16-39.764c22.167,0,14.333,37.36,14.667,39.764
								H665.777z"/>
							<path style="fill:#FFF2DE;" d="M667.042,444.801c-1.68-13.679-5.595-38.43,14.659-38.43c20.308,0,13.132,36.228,13.437,38.43
								H667.042z"/>
							<g>
								<path style="fill:#8695A3;" d="M669.863,440.134h22.373c-0.113-0.873,0.796-7.65,0.303-14.655H669.09
									C669.017,430.593,669.682,435.974,669.863,440.134z"/>
								<path style="fill:#8695A3;" d="M681.536,409.037c-8.611,0-11.492,5.686-12.233,12.684h22.817
									C691.075,415.007,688.295,409.037,681.536,409.037z"/>
							</g>
							<path style="fill:#1E120D;" d="M702.448,431.844c-28.667-4.333-43.17,0.36-43.17,0.36s-2.833,1.083-1.833,2.167
								c0.673,0.729,1.682-0.012,2.273-0.576l3.06,11.076h35.667c0.75-2.417,3.036-8.374,3.681-11.432c0,0,1.236,0.932,1.736,0
								S702.448,431.844,702.448,431.844z M664.941,443.35l-3.081-10.075c0,0,1.638-0.476,4.881-0.931l2.358,11.006H664.941z
								 M670.962,443.35l-1.97-11.285c1.826-0.198,4.001-0.367,6.524-0.461l0.858,11.746H670.962z M683.96,443.35h-5.424
								l-0.853-11.803c2.157-0.037,4.529-0.017,7.124,0.086L683.96,443.35z M686.122,443.35l0.848-11.615
								c2.042,0.113,4.214,0.279,6.504,0.504l-1.94,11.111H686.122z M696.341,443.35h-2.943l2.33-10.874
								c1.342,0.15,2.717,0.319,4.138,0.513C699.865,432.989,697.522,440.891,696.341,443.35z"/>
							<path style="fill:#C98E3F;" d="M661.444,447.204l-0.875-2.736c0,0,36.25-0.361,40.75,0l-0.625,2.736H661.444z"/>
						</g>
						<g>
							<polygon style="fill:#C9A273;" points="718.527,440.787 715.777,412.454 753.027,414.454 748.527,440.787 							"/>
							<polygon style="fill:#FFF2DE;" points="720.694,441.134 719.194,415.204 749.694,416.454 746.444,441.134 							"/>
							<polygon style="fill:#8695A3;" points="732.361,419.204 732.361,437.967 723.237,437.967 722.194,419.204 							"/>
							<polygon style="fill:#8695A3;" points="735.277,419.204 735.277,437.704 743.989,437.967 746.194,419.204 							"/>
							<polygon style="fill:#C98E3F;" points="717.694,444.87 716.444,440.134 749.694,440.134 748.444,444.467 							"/>
						</g>
						<g>
							<polygon style="fill:#C9A273;" points="649.527,438.745 652.277,410.412 615.027,412.412 619.527,438.745 							"/>
							<polygon style="fill:#FFF2DE;" points="647.361,439.092 648.861,413.162 618.361,414.412 621.611,439.092 							"/>
							<polygon style="fill:#8695A3;" points="635.694,417.162 635.694,435.926 644.818,435.926 645.861,417.162 							"/>
							<polygon style="fill:#8695A3;" points="632.777,417.162 632.777,435.662 624.066,435.926 621.861,417.162 							"/>
							<polygon style="fill:#C98E3F;" points="650.361,442.829 651.611,438.092 618.361,438.092 619.611,442.426 							"/>
						</g>
					</g>
					<g>
						<g>
							<path style="fill:#CEAE84;" d="M666.134,502.89c-1.833-14.93-6.106-39.764,16-39.764c22.167,0,14.333,37.36,14.667,39.764
								H666.134z"/>
							<path style="fill:#FFF2DE;" d="M667.22,504.552c-1.701-13.855-5.667-40.089,14.848-40.089
								c20.57,0,13.301,37.859,13.61,40.089H667.22z"/>
							<g>
								<path style="fill:#8695A3;" d="M670.22,498.556h22.373c-0.113-0.873,0.796-7.65,0.303-14.655h-23.449
									C669.374,489.015,670.039,494.397,670.22,498.556z"/>
								<path style="fill:#8695A3;" d="M681.893,467.459c-8.611,0-11.492,5.686-12.233,12.684h22.817
									C691.431,473.429,688.652,467.459,681.893,467.459z"/>
							</g>
							<path style="fill:#1E120D;" d="M702.805,490.267c-28.667-4.333-43.17,0.36-43.17,0.36s-2.833,1.083-1.833,2.167
								c0.673,0.729,1.682-0.012,2.273-0.576l3.06,11.076h35.667c0.75-2.417,3.036-8.374,3.681-11.432c0,0,1.236,0.932,1.736,0
								S702.805,490.267,702.805,490.267z M665.298,501.772l-3.081-10.075c0,0,1.638-0.476,4.881-0.931l2.358,11.006H665.298z
								 M671.319,501.772l-1.97-11.285c1.826-0.198,4.001-0.367,6.524-0.461l0.858,11.746H671.319z M684.317,501.772h-5.424
								l-0.853-11.803c2.157-0.037,4.529-0.017,7.124,0.086L684.317,501.772z M686.479,501.772l0.848-11.615
								c2.043,0.113,4.214,0.279,6.504,0.504l-1.94,11.111H686.479z M696.698,501.772h-2.943l2.33-10.874
								c1.342,0.15,2.717,0.319,4.138,0.513C700.222,491.411,697.879,499.314,696.698,501.772z"/>
							<path style="fill:#C98E3F;" d="M661.801,505.626l-0.875-2.736c0,0,36.25-0.362,40.75,0l-0.625,2.736H661.801z"/>
						</g>
						<g>
							<polygon style="fill:#C9A273;" points="718.882,496.154 716.132,467.82 753.382,469.82 748.882,496.154 							"/>
							<polygon style="fill:#FFF2DE;" points="721.048,496.501 719.548,470.57 750.048,471.82 746.798,496.501 							"/>
							<polygon style="fill:#8695A3;" points="732.715,474.57 732.715,493.334 723.591,493.334 722.548,474.57 							"/>
							<polygon style="fill:#8695A3;" points="735.632,474.57 735.632,493.07 744.343,493.334 746.548,474.57 							"/>
							<polygon style="fill:#C98E3F;" points="718.048,500.237 716.798,495.501 750.048,495.501 748.798,499.834 							"/>
						</g>
						<g>
							<polygon style="fill:#C9A273;" points="649.882,494.112 652.632,465.779 615.382,467.779 619.882,494.112 							"/>
							<polygon style="fill:#FFF2DE;" points="647.715,494.459 649.215,468.529 618.715,469.779 621.965,494.459 							"/>
							<polygon style="fill:#8695A3;" points="636.048,472.529 636.048,491.292 645.172,491.292 646.215,472.529 							"/>
							<polygon style="fill:#8695A3;" points="633.132,472.529 633.132,491.029 624.42,491.292 622.215,472.529 							"/>
							<polygon style="fill:#C98E3F;" points="650.715,498.195 651.965,493.459 618.715,493.459 619.965,497.792 							"/>
						</g>
					</g>
					<g>
						<path style="fill:#FFE3B6;" d="M714.777,347.42l-2.333,28.697l-55-2l-3-23c0,0,26.667-25.333,31.333-38.333
							C685.777,312.784,704.444,340.056,714.777,347.42z"/>
						<polygon style="fill:#C98E3F;" points="656.028,377.172 654.444,372.276 716.319,373.118 714.777,379.783 						"/>
						<g>
							<circle style="fill:#C9A273;" cx="684.611" cy="347.42" r="11.042"/>
							<circle style="fill:#FFF2DE;" cx="684.611" cy="347.42" r="9.833"/>
							<circle style="fill:#8695A3;" cx="684.611" cy="347.42" r="8.167"/>
						</g>
						<path style="fill:#DD6E58;" d="M646.444,353.784l4.667,3.163c0,0,27.333-21.83,34-39.496c0,0,19,29,34.333,36.667l5.667-2.333
							c0,0-24.333-17-36.5-37.333c0,0,4.833-6.667-2.833-7c-7.667-0.333-2.667,7-2.667,7S676.956,326.788,646.444,353.784z"/>
					</g>
					<g>
						<polygon style="fill:#FFF2DE;" points="603.841,451.185 765.648,453.474 764.926,460.702 604.298,460.702 						"/>
						<polygon style="fill:#FFF2DE;" points="606.388,509.204 759.854,509.204 759.138,516.265 606.627,515.221 						"/>
					</g>
					<polygon style="fill:#C98E3F;" points="753.027,591.451 754.382,585.451 609.444,585.451 611.442,593.118 					"/>
					<g>
						<g>
							<polygon style="fill:#8695A3;" points="702.676,544.451 698.879,576.201 747.548,577.784 751.048,544.451 							"/>
							<polygon style="fill:#8695A3;" points="658.23,544.451 659.944,574.451 616.027,574.451 614.444,544.451 							"/>
							<g>
								<polygon style="fill:#C9A273;" points="665.548,585.451 661.569,545.784 698.522,545.784 694.044,585.451 								"/>
								<polygon style="fill:#FFF2DE;" points="668.944,585.451 665.548,548.692 694.774,548.692 691.17,585.451 								"/>
								<path style="fill:#C9A273;" d="M690.194,569.618c0,0.69-0.56,1.25-1.25,1.25h-1c-0.69,0-1.25-0.56-1.25-1.25l0,0
									c0-0.69,0.56-1.25,1.25-1.25h1C689.634,568.368,690.194,568.927,690.194,569.618L690.194,569.618z"/>
							</g>
						</g>
						<polygon style="fill:#FFF2DE;" points="615.382,538.5 613.6,520.44 753.027,521.484 750.048,538.5 						"/>
					</g>
				</g>
				<g>
					<g>
						<polygon style="fill:#995919;" points="409.772,259.608 413.214,283.6 419.453,283.263 418.15,259.155 						"/>
						<polygon style="fill:#995919;" points="551.805,251.928 555.969,273.735 561.96,273.411 560.819,251.441 						"/>
						<polygon style="fill:#CC4732;" points="404.032,267.157 393.643,203.183 571.791,191.978 569.852,256.727 						"/>
						<polygon style="fill:#FFEBD7;" points="410.101,261.264 400.893,208.238 565.231,197.901 563.066,251.643 						"/>
					</g>
					<g>
						<g>
							<polygon style="fill:#415456;" points="387.185,356.568 392.625,418.617 402.76,416.173 399.501,355.902 							"/>
							<polygon style="fill:#415456;" points="393.397,432.905 396.133,487.903 406.607,487.337 403.603,431.764 							"/>
							<polygon style="fill:#415456;" points="396.969,503.367 399.315,580.891 411.63,580.225 407.334,500.78 							"/>
							<polygon style="fill:#2C494C;" points="396.217,329.315 375.268,330.448 379.572,360.671 397.859,359.682 							"/>
							<polygon style="fill:#2C494C;" points="402.449,410.434 381.5,411.567 385.805,441.79 404.091,440.801 							"/>
							<polygon style="fill:#2C494C;" points="404.327,479.314 383.378,480.446 387.683,510.669 405.969,509.681 							"/>
						</g>
						<polygon style="fill:#CC4732;" points="406.905,594.507 394.691,291.469 579.571,274.981 558.089,593.841 						"/>
					</g>
					<g>
						<polygon style="fill:#FF5F57;" points="390.045,282.707 390.639,293.691 581.585,281.363 586.728,265.348 						"/>
						<polygon style="fill:#FF5F57;" points="394.515,365.383 577.575,358.459 577.052,363.917 394.857,371.708 						"/>
						<polygon style="fill:#FF5F57;" points="393.781,444.403 572.786,436.567 571.676,443.835 393.998,448.411 						"/>
						<polygon style="fill:#FF5F57;" points="402.751,517.69 566.412,512.863 565.28,517.87 402.9,520.44 						"/>
					</g>
					<g>
						<g>
							<path style="fill:#FFE0B6;" d="M471.119,390.19l3.179,39.534l26.338-0.538l0.686-41.13c0,0-11.86-4.45-16.739-4.187
								C479.705,384.134,471.119,390.19,471.119,390.19z"/>
							<g>
								<defs>
									<path id="SVGID_00000166656961729312607660000016782401890509332378_" d="M466.008,388.825l4.438,5.072
										c0,0,6.998-6.32,16.165-6.466c9.167-0.146,15.897,4.733,15.897,4.733l3.841-4.728c0,0-7.863-11.482-20.312-10.635
										C473.587,377.649,466.008,388.825,466.008,388.825z"/>
								</defs>
								<use xlink:href="#SVGID_00000166656961729312607660000016782401890509332378_"  style="overflow:visible;fill:#F2C691;"/>
								<clipPath id="SVGID_00000099636766394195863250000012659370810010114691_">
									<use xlink:href="#SVGID_00000166656961729312607660000016782401890509332378_"  style="overflow:visible;"/>
								</clipPath>
								
									<line style="clip-path:url(#SVGID_00000099636766394195863250000012659370810010114691_);fill:none;stroke:#A56F3A;stroke-miterlimit:10;" x1="468.879" y1="384.098" x2="473.711" y2="391.529"/>
								
									<line style="clip-path:url(#SVGID_00000099636766394195863250000012659370810010114691_);fill:none;stroke:#A56F3A;stroke-miterlimit:10;" x1="474.275" y1="380.435" x2="478.01" y2="389.317"/>
								
									<line style="clip-path:url(#SVGID_00000099636766394195863250000012659370810010114691_);fill:none;stroke:#A56F3A;stroke-miterlimit:10;" x1="481.833" y1="377.448" x2="483.337" y2="387.888"/>
								
									<line style="clip-path:url(#SVGID_00000099636766394195863250000012659370810010114691_);fill:none;stroke:#A56F3A;stroke-miterlimit:10;" x1="488.922" y1="376.643" x2="488.63" y2="387.602"/>
								
									<line style="clip-path:url(#SVGID_00000099636766394195863250000012659370810010114691_);fill:none;stroke:#A56F3A;stroke-miterlimit:10;" x1="496.866" y1="378.313" x2="494.268" y2="388.438"/>
								
									<line style="clip-path:url(#SVGID_00000099636766394195863250000012659370810010114691_);fill:none;stroke:#A56F3A;stroke-miterlimit:10;" x1="503.531" y1="382.845" x2="498.946" y2="390.165"/>
							</g>
							<polygon style="fill:#8695A3;" points="476.922,407.003 476.196,393.586 497.629,392.427 496.499,407.081 							"/>
							<polygon style="fill:#8695A3;" points="477.148,411.185 496.316,410.149 496.043,424.494 478.735,424.381 							"/>
							<polygon style="fill:#FFB864;" points="470.724,428.135 471.878,433.315 502.41,432.363 503.229,428.125 							"/>
						</g>
						<g>
							<path style="fill:#FFE0B6;" d="M523.903,390.197l3.179,39.534l26.338-0.538l0.686-41.13c0,0-11.86-4.45-16.739-4.187
								S523.903,390.197,523.903,390.197z"/>
							<g>
								<defs>
									<path id="SVGID_00000157295973069057415860000013866711658734259116_" d="M518.792,388.832l4.438,5.072
										c0,0,6.998-6.32,16.165-6.466c9.167-0.146,15.897,4.733,15.897,4.733l3.841-4.728c0,0-7.863-11.482-20.312-10.634
										C526.371,377.656,518.792,388.832,518.792,388.832z"/>
								</defs>
								<use xlink:href="#SVGID_00000157295973069057415860000013866711658734259116_"  style="overflow:visible;fill:#F2C691;"/>
								<clipPath id="SVGID_00000029010634344471418550000013254415626458140564_">
									<use xlink:href="#SVGID_00000157295973069057415860000013866711658734259116_"  style="overflow:visible;"/>
								</clipPath>
								
									<line style="clip-path:url(#SVGID_00000029010634344471418550000013254415626458140564_);fill:none;stroke:#A56F3A;stroke-miterlimit:10;" x1="521.663" y1="384.105" x2="526.494" y2="391.536"/>
								
									<line style="clip-path:url(#SVGID_00000029010634344471418550000013254415626458140564_);fill:none;stroke:#A56F3A;stroke-miterlimit:10;" x1="527.059" y1="380.442" x2="530.793" y2="389.324"/>
								
									<line style="clip-path:url(#SVGID_00000029010634344471418550000013254415626458140564_);fill:none;stroke:#A56F3A;stroke-miterlimit:10;" x1="534.617" y1="377.454" x2="536.121" y2="387.895"/>
								
									<line style="clip-path:url(#SVGID_00000029010634344471418550000013254415626458140564_);fill:none;stroke:#A56F3A;stroke-miterlimit:10;" x1="541.705" y1="376.65" x2="541.414" y2="387.609"/>
								
									<line style="clip-path:url(#SVGID_00000029010634344471418550000013254415626458140564_);fill:none;stroke:#A56F3A;stroke-miterlimit:10;" x1="549.65" y1="378.32" x2="547.051" y2="388.445"/>
								
									<line style="clip-path:url(#SVGID_00000029010634344471418550000013254415626458140564_);fill:none;stroke:#A56F3A;stroke-miterlimit:10;" x1="556.315" y1="382.852" x2="551.729" y2="390.172"/>
							</g>
							<polygon style="fill:#8695A3;" points="529.705,407.01 528.98,393.593 550.413,392.434 549.283,407.088 							"/>
							<polygon style="fill:#8695A3;" points="529.932,411.192 549.099,410.156 548.826,424.501 531.519,424.388 							"/>
							<polygon style="fill:#FFB864;" points="523.508,428.142 524.662,433.322 555.194,432.37 556.013,428.132 							"/>
						</g>
						<g>
							<path style="fill:#FFE0B6;" d="M415.62,393.61l3.179,39.534l26.338-0.538l0.686-41.13c0,0-11.86-4.45-16.739-4.187
								C424.205,387.553,415.62,393.61,415.62,393.61z"/>
							<g>
								<defs>
									<path id="SVGID_00000042703285745590859840000003695333736002076579_" d="M410.509,392.244l4.438,5.072
										c0,0,6.998-6.32,16.165-6.466c9.167-0.146,15.897,4.733,15.897,4.733l3.841-4.728c0,0-7.863-11.482-20.312-10.634
										C418.087,381.068,410.509,392.244,410.509,392.244z"/>
								</defs>
								<use xlink:href="#SVGID_00000042703285745590859840000003695333736002076579_"  style="overflow:visible;fill:#F2C691;"/>
								<clipPath id="SVGID_00000054967621585514245810000010078635822481355425_">
									<use xlink:href="#SVGID_00000042703285745590859840000003695333736002076579_"  style="overflow:visible;"/>
								</clipPath>
								
									<line style="clip-path:url(#SVGID_00000054967621585514245810000010078635822481355425_);fill:none;stroke:#A56F3A;stroke-miterlimit:10;" x1="413.38" y1="387.517" x2="418.211" y2="394.948"/>
								
									<line style="clip-path:url(#SVGID_00000054967621585514245810000010078635822481355425_);fill:none;stroke:#A56F3A;stroke-miterlimit:10;" x1="418.775" y1="383.855" x2="422.51" y2="392.736"/>
								
									<line style="clip-path:url(#SVGID_00000054967621585514245810000010078635822481355425_);fill:none;stroke:#A56F3A;stroke-miterlimit:10;" x1="426.334" y1="380.867" x2="427.838" y2="391.307"/>
								
									<line style="clip-path:url(#SVGID_00000054967621585514245810000010078635822481355425_);fill:none;stroke:#A56F3A;stroke-miterlimit:10;" x1="433.422" y1="380.062" x2="433.131" y2="391.021"/>
								
									<line style="clip-path:url(#SVGID_00000054967621585514245810000010078635822481355425_);fill:none;stroke:#A56F3A;stroke-miterlimit:10;" x1="441.366" y1="381.732" x2="438.768" y2="391.857"/>
								
									<line style="clip-path:url(#SVGID_00000054967621585514245810000010078635822481355425_);fill:none;stroke:#A56F3A;stroke-miterlimit:10;" x1="448.031" y1="386.265" x2="443.446" y2="393.584"/>
							</g>
							<polygon style="fill:#8695A3;" points="421.422,410.422 420.697,397.005 442.13,395.846 441,410.5 							"/>
							<polygon style="fill:#8695A3;" points="421.648,414.604 440.816,413.568 440.543,427.913 423.236,427.8 							"/>
							<polygon style="fill:#FFB864;" points="415.225,431.554 416.379,436.734 446.91,435.783 447.73,431.544 							"/>
						</g>
					</g>
					<g>
						<g>
							<path style="fill:#FFE0B6;" d="M471.118,464.255l3.179,39.534l26.338-0.538l0.686-41.13c0,0-11.86-4.45-16.739-4.187
								C479.704,458.199,471.118,464.255,471.118,464.255z"/>
							<g>
								<defs>
									<path id="SVGID_00000003826870427164055700000011347925052417246102_" d="M466.007,462.89l4.438,5.072
										c0,0,6.998-6.32,16.165-6.466c9.167-0.146,15.897,4.733,15.897,4.733l3.841-4.728c0,0-7.863-11.482-20.312-10.635
										S466.007,462.89,466.007,462.89z"/>
								</defs>
								<use xlink:href="#SVGID_00000003826870427164055700000011347925052417246102_"  style="overflow:visible;fill:#F2C691;"/>
								<clipPath id="SVGID_00000177445913203843163020000014378885755953505727_">
									<use xlink:href="#SVGID_00000003826870427164055700000011347925052417246102_"  style="overflow:visible;"/>
								</clipPath>
								
									<line style="clip-path:url(#SVGID_00000177445913203843163020000014378885755953505727_);fill:none;stroke:#A56F3A;stroke-miterlimit:10;" x1="468.878" y1="458.163" x2="473.71" y2="465.594"/>
								
									<line style="clip-path:url(#SVGID_00000177445913203843163020000014378885755953505727_);fill:none;stroke:#A56F3A;stroke-miterlimit:10;" x1="474.274" y1="454.5" x2="478.009" y2="463.382"/>
								
									<line style="clip-path:url(#SVGID_00000177445913203843163020000014378885755953505727_);fill:none;stroke:#A56F3A;stroke-miterlimit:10;" x1="481.832" y1="451.512" x2="483.336" y2="461.953"/>
								
									<line style="clip-path:url(#SVGID_00000177445913203843163020000014378885755953505727_);fill:none;stroke:#A56F3A;stroke-miterlimit:10;" x1="488.921" y1="450.708" x2="488.629" y2="461.667"/>
								
									<line style="clip-path:url(#SVGID_00000177445913203843163020000014378885755953505727_);fill:none;stroke:#A56F3A;stroke-miterlimit:10;" x1="496.865" y1="452.377" x2="494.267" y2="462.503"/>
								
									<line style="clip-path:url(#SVGID_00000177445913203843163020000014378885755953505727_);fill:none;stroke:#A56F3A;stroke-miterlimit:10;" x1="503.53" y1="456.91" x2="498.945" y2="464.229"/>
							</g>
							<polygon style="fill:#8695A3;" points="476.921,481.068 476.195,467.651 497.628,466.492 496.498,481.145 							"/>
							<polygon style="fill:#8695A3;" points="477.147,485.25 496.315,484.214 496.042,498.559 478.734,498.446 							"/>
							<polygon style="fill:#FFB864;" points="470.723,502.2 471.877,507.38 502.409,506.428 503.228,502.19 							"/>
						</g>
						<g>
							<path style="fill:#FFE0B6;" d="M523.902,464.262l3.179,39.534l26.338-0.538l0.686-41.13c0,0-11.859-4.45-16.739-4.187
								C532.487,458.206,523.902,464.262,523.902,464.262z"/>
							<g>
								<defs>
									<path id="SVGID_00000047039387238924547120000008252132960759117498_" d="M518.791,462.897l4.438,5.072
										c0,0,6.998-6.32,16.165-6.466c9.167-0.146,15.897,4.733,15.897,4.733l3.841-4.728c0,0-7.863-11.482-20.312-10.635
										C526.37,451.721,518.791,462.897,518.791,462.897z"/>
								</defs>
								<use xlink:href="#SVGID_00000047039387238924547120000008252132960759117498_"  style="overflow:visible;fill:#F2C691;"/>
								<clipPath id="SVGID_00000162321155908459523690000000746244713572006841_">
									<use xlink:href="#SVGID_00000047039387238924547120000008252132960759117498_"  style="overflow:visible;"/>
								</clipPath>
								
									<line style="clip-path:url(#SVGID_00000162321155908459523690000000746244713572006841_);fill:none;stroke:#A56F3A;stroke-miterlimit:10;" x1="521.662" y1="458.17" x2="526.493" y2="465.601"/>
								
									<line style="clip-path:url(#SVGID_00000162321155908459523690000000746244713572006841_);fill:none;stroke:#A56F3A;stroke-miterlimit:10;" x1="527.058" y1="454.507" x2="530.792" y2="463.389"/>
								
									<line style="clip-path:url(#SVGID_00000162321155908459523690000000746244713572006841_);fill:none;stroke:#A56F3A;stroke-miterlimit:10;" x1="534.616" y1="451.519" x2="536.12" y2="461.96"/>
								
									<line style="clip-path:url(#SVGID_00000162321155908459523690000000746244713572006841_);fill:none;stroke:#A56F3A;stroke-miterlimit:10;" x1="541.704" y1="450.715" x2="541.413" y2="461.673"/>
								
									<line style="clip-path:url(#SVGID_00000162321155908459523690000000746244713572006841_);fill:none;stroke:#A56F3A;stroke-miterlimit:10;" x1="549.649" y1="452.384" x2="547.05" y2="462.51"/>
								
									<line style="clip-path:url(#SVGID_00000162321155908459523690000000746244713572006841_);fill:none;stroke:#A56F3A;stroke-miterlimit:10;" x1="556.314" y1="456.917" x2="551.728" y2="464.236"/>
							</g>
							<polygon style="fill:#8695A3;" points="529.704,481.075 528.979,467.658 550.412,466.499 549.282,481.152 							"/>
							<polygon style="fill:#8695A3;" points="529.93,485.257 549.098,484.221 548.825,498.566 531.518,498.453 							"/>
							<polygon style="fill:#FFB864;" points="523.507,502.207 524.661,507.387 555.193,506.435 556.012,502.197 							"/>
						</g>
						<g>
							<path style="fill:#FFE0B6;" d="M415.619,467.674l3.179,39.534l26.338-0.538l0.686-41.13c0,0-11.859-4.45-16.739-4.187
								C424.204,461.618,415.619,467.674,415.619,467.674z"/>
							<g>
								<defs>
									<path id="SVGID_00000075124648133239094660000014815743335602579645_" d="M410.508,466.309l4.438,5.072
										c0,0,6.998-6.32,16.165-6.466c9.167-0.146,15.897,4.733,15.897,4.733l3.841-4.728c0,0-7.863-11.482-20.312-10.635
										S410.508,466.309,410.508,466.309z"/>
								</defs>
								<use xlink:href="#SVGID_00000075124648133239094660000014815743335602579645_"  style="overflow:visible;fill:#F2C691;"/>
								<clipPath id="SVGID_00000170277298311633047330000013616572551134264984_">
									<use xlink:href="#SVGID_00000075124648133239094660000014815743335602579645_"  style="overflow:visible;"/>
								</clipPath>
								
									<line style="clip-path:url(#SVGID_00000170277298311633047330000013616572551134264984_);fill:none;stroke:#A56F3A;stroke-miterlimit:10;" x1="413.379" y1="461.582" x2="418.21" y2="469.013"/>
								
									<line style="clip-path:url(#SVGID_00000170277298311633047330000013616572551134264984_);fill:none;stroke:#A56F3A;stroke-miterlimit:10;" x1="418.774" y1="457.919" x2="422.509" y2="466.801"/>
								
									<line style="clip-path:url(#SVGID_00000170277298311633047330000013616572551134264984_);fill:none;stroke:#A56F3A;stroke-miterlimit:10;" x1="426.333" y1="454.932" x2="427.837" y2="465.372"/>
								
									<line style="clip-path:url(#SVGID_00000170277298311633047330000013616572551134264984_);fill:none;stroke:#A56F3A;stroke-miterlimit:10;" x1="433.421" y1="454.127" x2="433.13" y2="465.086"/>
								
									<line style="clip-path:url(#SVGID_00000170277298311633047330000013616572551134264984_);fill:none;stroke:#A56F3A;stroke-miterlimit:10;" x1="441.365" y1="455.797" x2="438.767" y2="465.922"/>
								
									<line style="clip-path:url(#SVGID_00000170277298311633047330000013616572551134264984_);fill:none;stroke:#A56F3A;stroke-miterlimit:10;" x1="448.03" y1="460.33" x2="443.445" y2="467.649"/>
							</g>
							<polygon style="fill:#8695A3;" points="421.421,484.487 420.696,471.07 442.129,469.911 440.999,484.565 							"/>
							<polygon style="fill:#8695A3;" points="421.647,488.669 440.815,487.633 440.542,501.978 423.235,501.865 							"/>
							<polygon style="fill:#FFB864;" points="415.224,505.619 416.378,510.799 446.909,509.847 447.729,505.609 							"/>
						</g>
					</g>
					<g>
						<g>
							<path style="fill:#FFE0B6;" d="M472.845,311.344l3.179,39.534l26.338-0.538l0.686-41.129c0,0-11.86-4.45-16.739-4.187
								C481.431,305.288,472.845,311.344,472.845,311.344z"/>
							<g>
								<defs>
									<path id="SVGID_00000121263262382389099900000016262065168732916612_" d="M467.734,309.979l4.438,5.072
										c0,0,6.998-6.32,16.165-6.466s15.897,4.733,15.897,4.733l3.841-4.728c0,0-7.863-11.482-20.312-10.634
										C475.313,298.803,467.734,309.979,467.734,309.979z"/>
								</defs>
								<use xlink:href="#SVGID_00000121263262382389099900000016262065168732916612_"  style="overflow:visible;fill:#F2C691;"/>
								<clipPath id="SVGID_00000080172963636958204100000007490577020618903207_">
									<use xlink:href="#SVGID_00000121263262382389099900000016262065168732916612_"  style="overflow:visible;"/>
								</clipPath>
								
									<line style="clip-path:url(#SVGID_00000080172963636958204100000007490577020618903207_);fill:none;stroke:#A56F3A;stroke-miterlimit:10;" x1="470.605" y1="305.252" x2="475.437" y2="312.683"/>
								
									<line style="clip-path:url(#SVGID_00000080172963636958204100000007490577020618903207_);fill:none;stroke:#A56F3A;stroke-miterlimit:10;" x1="476.001" y1="301.589" x2="479.736" y2="310.471"/>
								
									<line style="clip-path:url(#SVGID_00000080172963636958204100000007490577020618903207_);fill:none;stroke:#A56F3A;stroke-miterlimit:10;" x1="483.559" y1="298.602" x2="485.063" y2="309.042"/>
								
									<line style="clip-path:url(#SVGID_00000080172963636958204100000007490577020618903207_);fill:none;stroke:#A56F3A;stroke-miterlimit:10;" x1="490.647" y1="297.797" x2="490.356" y2="308.756"/>
								
									<line style="clip-path:url(#SVGID_00000080172963636958204100000007490577020618903207_);fill:none;stroke:#A56F3A;stroke-miterlimit:10;" x1="498.592" y1="299.467" x2="495.994" y2="309.592"/>
								
									<line style="clip-path:url(#SVGID_00000080172963636958204100000007490577020618903207_);fill:none;stroke:#A56F3A;stroke-miterlimit:10;" x1="505.257" y1="303.999" x2="500.672" y2="311.319"/>
							</g>
							<polygon style="fill:#8695A3;" points="478.648,328.157 477.922,314.74 499.355,313.581 498.225,328.235 							"/>
							<polygon style="fill:#8695A3;" points="478.874,332.339 498.041,331.303 497.769,345.648 480.461,345.535 							"/>
							<polygon style="fill:#FFB864;" points="472.45,349.289 473.604,354.469 504.136,353.517 504.955,349.279 							"/>
						</g>
						<g>
							<path style="fill:#FFE0B6;" d="M525.629,311.351l3.179,39.534l26.338-0.538l0.686-41.13c0,0-11.859-4.45-16.739-4.187
								C534.214,305.295,525.629,311.351,525.629,311.351z"/>
							<g>
								<defs>
									<path id="SVGID_00000010293843138773197930000016037168006623671207_" d="M520.518,309.986l4.438,5.072
										c0,0,6.998-6.32,16.165-6.466s15.897,4.733,15.897,4.733l3.841-4.728c0,0-7.863-11.482-20.312-10.634
										C528.096,298.81,520.518,309.986,520.518,309.986z"/>
								</defs>
								<use xlink:href="#SVGID_00000010293843138773197930000016037168006623671207_"  style="overflow:visible;fill:#F2C691;"/>
								<clipPath id="SVGID_00000014621172841004780840000006796643845079514277_">
									<use xlink:href="#SVGID_00000010293843138773197930000016037168006623671207_"  style="overflow:visible;"/>
								</clipPath>
								
									<line style="clip-path:url(#SVGID_00000014621172841004780840000006796643845079514277_);fill:none;stroke:#A56F3A;stroke-miterlimit:10;" x1="523.389" y1="305.259" x2="528.22" y2="312.69"/>
								
									<line style="clip-path:url(#SVGID_00000014621172841004780840000006796643845079514277_);fill:none;stroke:#A56F3A;stroke-miterlimit:10;" x1="528.785" y1="301.596" x2="532.519" y2="310.478"/>
								
									<line style="clip-path:url(#SVGID_00000014621172841004780840000006796643845079514277_);fill:none;stroke:#A56F3A;stroke-miterlimit:10;" x1="536.343" y1="298.608" x2="537.847" y2="309.049"/>
								
									<line style="clip-path:url(#SVGID_00000014621172841004780840000006796643845079514277_);fill:none;stroke:#A56F3A;stroke-miterlimit:10;" x1="543.431" y1="297.804" x2="543.14" y2="308.763"/>
								
									<line style="clip-path:url(#SVGID_00000014621172841004780840000006796643845079514277_);fill:none;stroke:#A56F3A;stroke-miterlimit:10;" x1="551.376" y1="299.473" x2="548.777" y2="309.599"/>
								
									<line style="clip-path:url(#SVGID_00000014621172841004780840000006796643845079514277_);fill:none;stroke:#A56F3A;stroke-miterlimit:10;" x1="558.041" y1="304.006" x2="553.455" y2="311.325"/>
							</g>
							<polygon style="fill:#8695A3;" points="531.431,328.164 530.706,314.747 552.139,313.588 551.009,328.241 							"/>
							<polygon style="fill:#8695A3;" points="531.657,332.346 550.825,331.31 550.552,345.655 533.245,345.542 							"/>
							<polygon style="fill:#FFB864;" points="525.234,349.296 526.388,354.476 556.92,353.524 557.739,349.286 							"/>
						</g>
						<g>
							<path style="fill:#FFE0B6;" d="M417.346,314.763l3.179,39.534l26.338-0.538l0.686-41.13c0,0-11.86-4.45-16.739-4.187
								C425.931,308.707,417.346,314.763,417.346,314.763z"/>
							<g>
								<defs>
									<path id="SVGID_00000004539292062837890560000009500746886539170488_" d="M412.235,313.398l4.438,5.072
										c0,0,6.998-6.32,16.165-6.466s15.897,4.733,15.897,4.733l3.841-4.728c0,0-7.863-11.482-20.312-10.634
										C419.813,302.222,412.235,313.398,412.235,313.398z"/>
								</defs>
								<use xlink:href="#SVGID_00000004539292062837890560000009500746886539170488_"  style="overflow:visible;fill:#F2C691;"/>
								<clipPath id="SVGID_00000165198848434395093940000014710724139940907186_">
									<use xlink:href="#SVGID_00000004539292062837890560000009500746886539170488_"  style="overflow:visible;"/>
								</clipPath>
								
									<line style="clip-path:url(#SVGID_00000165198848434395093940000014710724139940907186_);fill:none;stroke:#A56F3A;stroke-miterlimit:10;" x1="415.106" y1="308.671" x2="419.937" y2="316.102"/>
								
									<line style="clip-path:url(#SVGID_00000165198848434395093940000014710724139940907186_);fill:none;stroke:#A56F3A;stroke-miterlimit:10;" x1="420.501" y1="305.008" x2="424.236" y2="313.89"/>
								
									<line style="clip-path:url(#SVGID_00000165198848434395093940000014710724139940907186_);fill:none;stroke:#A56F3A;stroke-miterlimit:10;" x1="428.06" y1="302.021" x2="429.564" y2="312.461"/>
								
									<line style="clip-path:url(#SVGID_00000165198848434395093940000014710724139940907186_);fill:none;stroke:#A56F3A;stroke-miterlimit:10;" x1="435.148" y1="301.216" x2="434.857" y2="312.175"/>
								
									<line style="clip-path:url(#SVGID_00000165198848434395093940000014710724139940907186_);fill:none;stroke:#A56F3A;stroke-miterlimit:10;" x1="443.092" y1="302.886" x2="440.494" y2="313.011"/>
								
									<line style="clip-path:url(#SVGID_00000165198848434395093940000014710724139940907186_);fill:none;stroke:#A56F3A;stroke-miterlimit:10;" x1="449.757" y1="307.419" x2="445.172" y2="314.738"/>
							</g>
							<polygon style="fill:#8695A3;" points="423.148,331.576 422.423,318.159 443.855,317 442.725,331.654 							"/>
							<polygon style="fill:#8695A3;" points="423.374,335.758 442.542,334.722 442.269,349.067 424.961,348.954 							"/>
							<polygon style="fill:#FFB864;" points="416.951,352.708 418.105,357.888 448.636,356.937 449.456,352.698 							"/>
						</g>
					</g>
					<polygon style="fill:#A7CBD3;" points="398.357,524.621 401.498,543.916 564.435,541.001 567.309,521.484 					"/>
					<g>
						<g>
							<polygon style="fill:#FFE0B6;" points="499.652,587.324 499.837,549.365 526.064,549.502 522.577,586.431 							"/>
							<polygon style="fill:#8695A3;" points="502.765,582.713 502.907,553.724 522.936,553.829 520.272,582.031 							"/>
						</g>
						<g>
							<polygon style="fill:#FFE0B6;" points="528.094,587.03 530.059,549.286 556.629,549.405 552.163,587.648 							"/>
							<polygon style="fill:#8695A3;" points="531.335,582.8 532.854,553.626 553.391,553.717 549.94,583.278 							"/>
						</g>
						<g>
							<polygon style="fill:#FFE0B6;" points="457.389,585.877 459.471,550.313 437.377,551.188 439.305,586.854 							"/>
							<polygon style="fill:#8695A3;" points="455.308,582.045 456.93,554.345 439.721,555.026 441.223,582.807 							"/>
						</g>
						<g>
							<polygon style="fill:#FFE0B6;" points="433.88,587.148 433.379,551.109 410.069,551.351 413.817,586.533 							"/>
							<polygon style="fill:#8695A3;" points="431.365,583.277 430.97,554.857 412.588,555.047 415.544,582.792 							"/>
						</g>
						<g>
							<polygon style="fill:#FFE0B6;" points="467.616,594.24 464.922,550.054 494.273,550.136 492.646,594.129 							"/>
							<polygon style="fill:#D19A59;" points="469.163,554.405 489.479,555.069 488.441,573.694 470.761,573.147 							"/>
							<polygon style="fill:#D19A59;" points="470.388,577.048 487.938,577.351 487.524,587.141 471.763,587.367 							"/>
							<polygon style="fill:#FFB864;" points="465.89,598.826 464.208,590.404 495.275,590.811 494.485,598.695 							"/>
						</g>
					</g>
				</g>
			</g>
			<g>
				<g>
					<ellipse style="fill:#3B3E3F;" cx="613.361" cy="694.375" rx="98.222" ry="7.187"/>
					<g>
						<circle style="fill:#1D1D1B;" cx="564.108" cy="679.459" r="14.917"/>
						<circle style="fill:#686868;" cx="564.108" cy="679.459" r="8.399"/>
						<circle style="fill:#AAAAAA;" cx="564.108" cy="679.459" r="4.948"/>
						<circle style="fill:#1D1D1B;" cx="660.74" cy="679.459" r="14.917"/>
						<path style="fill:#F4C606;" d="M590.393,651.459c0,0-75.739,14.5-78.512,14.5l3.355,18h32.302c0,0,1.653-13.482,16.57-13.482
							s17.5,13.482,17.5,13.482h61.5c0,0,3.173-13.482,17.632-13.482c14.917,0,20.368,11.482,20.368,13.482c0,0,20.388-1,23.194-2.5
							c2.806-1.5-1.083-26-1.083-26l-13.229-4c0,0-4.999-48-7.19-51c0,0-73.191-2-81.191,0L590.393,651.459z"/>
						<circle style="fill:#686868;" cx="660.74" cy="679.459" r="8.399"/>
						<circle style="fill:#AAAAAA;" cx="660.74" cy="679.459" r="4.948"/>
						<path style="fill:#FFD62C;" d="M608.6,604.125l-8.992,44.799l4.5,27.987h31.277c0,0,5.223-13.202,13.223-13.702l-2.681-58.083
							L608.6,604.125z"/>
						<path style="fill:#FFF4C5;" d="M513.922,676.911c0,0,8.745-3.785,9.465-12.869l-11.507,1.917L513.922,676.911z"/>
						<path style="fill:#F24A00;" d="M704.302,658.959c0,0,8.228,2.5,1.017,8.5L704.302,658.959z"/>
						<polygon style="fill:#8695A3;" points="590.951,648.924 597.179,646.959 605.138,607.667 599.876,608.333 						"/>
						<path style="fill:#8695A3;" d="M604.108,646.959c0,0,6-38.5,6.5-39.5c3.777-0.444,33,0,33,0v39.5H604.108z"/>
						<polygon style="fill:#8695A3;" points="651.385,646.959 649.608,607.511 679.177,607.511 683.156,646.959 						"/>
						<path style="fill:#EFEFEF;" d="M645.927,651.191c0,1.252-1.015,2.267-2.267,2.267h-6.007c-1.252,0-2.267-1.015-2.267-2.267
							l0,0c0-1.252,1.015-2.267,2.267-2.267h6.007C644.912,648.924,645.927,649.939,645.927,651.191L645.927,651.191z"/>
						<polygon style="fill:#FFD62C;" points="523.388,664.042 531.926,667.459 587.393,655.459 590.393,651.459 						"/>
						<path style="fill:#EFEFEF;" d="M510.608,676.911l11-1.202c0,0,1.5,7.146,0,8.698s-9.727,1.052-9.727,1.052L510.608,676.911z"
							/>
						<path style="fill:#EFEFEF;" d="M597.5,651.191c0,0-4.114-0.999-3.935-5.499c0.179-4.5,9.185-5.174,9.185-5.174l-1,10.94
							L597.5,651.191z"/>
					</g>
				</g>
				<g>
					<ellipse style="fill:#3B3E3F;" cx="148.29" cy="758.814" rx="118.426" ry="7.187"/>
					<g>
						<circle style="fill:#1D1D1B;" cx="200.207" cy="742.874" r="16.939"/>
						<circle style="fill:#686868;" cx="200.207" cy="742.874" r="9.538"/>
						<circle style="fill:#AAAAAA;" cx="200.207" cy="742.874" r="5.619"/>
						<circle style="fill:#1D1D1B;" cx="90.47" cy="742.874" r="16.939"/>
						<path style="fill:#27C6FA;" d="M170.357,711.077c0,0,86.011,16.466,89.16,16.466l-3.81,20.441h-36.683
							c0,0-1.877-15.31-18.817-15.31s-19.873,15.31-19.873,15.31h-69.84c0,0-3.604-15.31-20.023-15.31
							c-16.939,0-23.131,13.039-23.131,15.31c0,0-23.153-1.136-26.34-2.839c-3.186-1.703,1.23-29.526,1.23-29.526l15.023-4.542
							c0,0,5.677-54.51,8.165-57.916c0,0,83.117-2.271,92.202,0L170.357,711.077z"/>
						<circle style="fill:#686868;" cx="90.47" cy="742.874" r="9.538"/>
						<circle style="fill:#AAAAAA;" cx="90.47" cy="742.874" r="5.619"/>
						<path style="fill:#4DD4FF;" d="M149.681,657.325l10.212,50.874l-5.11,31.782h-35.519c0,0-5.931-14.993-15.016-15.561
							l3.044-65.96L149.681,657.325z"/>
						<path style="fill:#FFF4C5;" d="M257.198,739.981c0,0-9.931-4.299-10.749-14.614l13.067,2.176L257.198,739.981z"/>
						<path style="fill:#F24A00;" d="M41,719.594c0,0-9.344,2.839-1.155,9.653L41,719.594z"/>
						<polygon style="fill:#8695A3;" points="169.724,708.199 162.651,705.967 153.613,661.346 159.588,662.104 						"/>
						<path style="fill:#8695A3;" d="M154.782,705.967c0,0-6.814-43.721-7.382-44.857c-4.29-0.505-37.475,0-37.475,0v44.857H154.782
							z"/>
						<polygon style="fill:#8695A3;" points="101.093,705.967 103.112,661.169 69.533,661.169 65.014,705.967 						"/>
						<path style="fill:#EFEFEF;" d="M107.292,710.774c0,1.422,1.153,2.575,2.575,2.575h6.822c1.422,0,2.575-1.153,2.575-2.575l0,0
							c0-1.422-1.153-2.575-2.575-2.575h-6.822C108.445,708.199,107.292,709.352,107.292,710.774L107.292,710.774z"/>
						<polygon style="fill:#4DD4FF;" points="246.449,725.367 236.753,729.247 173.763,715.62 170.357,711.077 						"/>
						<path style="fill:#EFEFEF;" d="M260.962,739.981l-12.492-1.365c0,0-1.703,8.115,0,9.878
							c1.703,1.762,11.046,1.195,11.046,1.195L260.962,739.981z"/>
						<path style="fill:#EFEFEF;" d="M162.287,710.774c0,0,4.672-1.135,4.468-6.245c-0.203-5.11-10.43-5.876-10.43-5.876
							l1.136,12.424L162.287,710.774z"/>
					</g>
				</g>
			</g>
		</g>
	</g>
	<g>
		<g>
			<path style="fill:#FFFFFF;" d="M286.024,774.287v-0.257c-0.349,0.398-0.692,0.724-1.031,0.973
				c-0.338,0.251-0.706,0.441-1.102,0.57c-0.396,0.132-0.827,0.195-1.296,0.195c-0.621,0-1.196-0.131-1.725-0.394
				c-0.528-0.263-0.986-0.639-1.372-1.126c-0.387-0.487-0.68-1.06-0.879-1.719c-0.199-0.659-0.299-1.371-0.299-2.137
				c0-1.621,0.396-2.886,1.188-3.791c0.792-0.904,1.833-1.357,3.125-1.357c0.747,0,1.377,0.129,1.89,0.384
				c0.513,0.257,1.013,0.652,1.501,1.183v-3.827c0-0.532,0.105-0.934,0.318-1.206c0.211-0.273,0.514-0.408,0.907-0.408
				c0.393,0,0.694,0.125,0.907,0.375c0.212,0.251,0.318,0.618,0.318,1.106v11.436c0,0.494-0.113,0.864-0.342,1.111
				c-0.228,0.246-0.522,0.37-0.883,0.37c-0.354,0-0.647-0.128-0.879-0.384C286.139,775.127,286.024,774.761,286.024,774.287z
				 M280.923,770.478c0,0.703,0.109,1.301,0.328,1.795c0.219,0.494,0.518,0.866,0.897,1.115c0.38,0.251,0.795,0.377,1.244,0.377
				c0.456,0,0.872-0.119,1.25-0.357c0.376-0.236,0.677-0.602,0.902-1.091c0.225-0.491,0.337-1.105,0.337-1.839
				c0-0.69-0.112-1.284-0.337-1.782c-0.225-0.496-0.528-0.876-0.912-1.14c-0.383-0.262-0.803-0.393-1.258-0.393
				c-0.475,0-0.899,0.135-1.273,0.403c-0.374,0.269-0.663,0.654-0.869,1.158C281.026,769.229,280.923,769.813,280.923,770.478z"/>
			<path style="fill:#FFFFFF;" d="M297.458,771.134h-5.071c0.006,0.588,0.124,1.107,0.356,1.557c0.23,0.45,0.538,0.789,0.921,1.017
				c0.383,0.229,0.806,0.341,1.268,0.341c0.31,0,0.593-0.035,0.85-0.107c0.257-0.074,0.505-0.187,0.746-0.343
				c0.241-0.154,0.462-0.321,0.664-0.499c0.202-0.178,0.464-0.419,0.788-0.723c0.133-0.113,0.323-0.171,0.571-0.171
				c0.266,0,0.48,0.074,0.645,0.22c0.165,0.146,0.248,0.351,0.248,0.617c0,0.234-0.093,0.507-0.275,0.821
				c-0.185,0.314-0.462,0.614-0.832,0.902c-0.371,0.288-0.835,0.526-1.397,0.717c-0.56,0.19-1.204,0.285-1.933,0.285
				c-1.664,0-2.96-0.476-3.884-1.425c-0.924-0.949-1.386-2.238-1.386-3.865c0-0.767,0.113-1.478,0.341-2.132
				c0.228-0.656,0.561-1.218,0.997-1.686c0.437-0.469,0.975-0.827,1.615-1.078c0.639-0.25,1.349-0.374,2.127-0.374
				c1.013,0,1.882,0.212,2.606,0.641c0.726,0.427,1.27,0.979,1.63,1.656c0.36,0.678,0.542,1.369,0.542,2.07
				c0,0.653-0.187,1.075-0.56,1.269C298.662,771.037,298.136,771.134,297.458,771.134z M292.386,769.662h4.702
				c-0.063-0.887-0.303-1.551-0.717-1.99c-0.415-0.44-0.96-0.66-1.638-0.66c-0.646,0-1.177,0.223-1.591,0.669
				C292.727,768.127,292.476,768.788,292.386,769.662z"/>
			<path style="fill:#FFFFFF;" d="M309.273,772.377c0,0.716-0.173,1.329-0.523,1.839c-0.348,0.51-0.862,0.896-1.543,1.159
				c-0.68,0.263-1.508,0.394-2.483,0.394c-0.931,0-1.728-0.143-2.394-0.428c-0.665-0.284-1.156-0.642-1.472-1.067
				c-0.317-0.429-0.475-0.857-0.475-1.288c0-0.285,0.101-0.528,0.304-0.731c0.202-0.202,0.459-0.304,0.77-0.304
				c0.272,0,0.48,0.066,0.626,0.199c0.146,0.133,0.286,0.32,0.417,0.56c0.266,0.464,0.585,0.807,0.956,1.036
				c0.37,0.227,0.875,0.342,1.515,0.342c0.519,0,0.945-0.116,1.277-0.347c0.332-0.232,0.498-0.496,0.498-0.794
				c0-0.456-0.172-0.787-0.518-0.996c-0.345-0.209-0.914-0.409-1.705-0.6c-0.893-0.221-1.619-0.454-2.18-0.698
				c-0.561-0.242-1.008-0.565-1.344-0.963c-0.335-0.399-0.503-0.891-0.503-1.473c0-0.518,0.155-1.01,0.465-1.473
				c0.311-0.461,0.768-0.83,1.374-1.105c0.603-0.276,1.333-0.414,2.188-0.414c0.671,0,1.275,0.069,1.809,0.21
				c0.536,0.138,0.983,0.326,1.34,0.561c0.358,0.233,0.63,0.493,0.816,0.777c0.187,0.285,0.28,0.563,0.28,0.837
				c0,0.297-0.1,0.541-0.298,0.731c-0.199,0.188-0.482,0.285-0.85,0.285c-0.266,0-0.492-0.076-0.679-0.23
				c-0.187-0.151-0.4-0.379-0.641-0.683c-0.196-0.253-0.426-0.456-0.693-0.608c-0.266-0.152-0.627-0.228-1.083-0.228
				c-0.469,0-0.857,0.099-1.168,0.3c-0.31,0.198-0.465,0.446-0.465,0.744c0,0.273,0.114,0.496,0.341,0.67
				c0.229,0.175,0.535,0.319,0.922,0.433c0.386,0.113,0.917,0.252,1.596,0.417c0.803,0.197,1.46,0.432,1.97,0.703
				c0.509,0.271,0.895,0.594,1.16,0.965C309.142,771.48,309.273,771.902,309.273,772.377z"/>
			<path style="fill:#FFFFFF;" d="M311.922,764.02c-0.361,0-0.669-0.111-0.926-0.333c-0.256-0.221-0.385-0.534-0.385-0.94
				c0-0.368,0.131-0.669,0.394-0.907c0.263-0.238,0.569-0.356,0.917-0.356c0.336,0,0.633,0.107,0.893,0.323
				c0.26,0.216,0.39,0.528,0.39,0.94c0,0.399-0.127,0.711-0.381,0.936C312.57,763.907,312.27,764.02,311.922,764.02z
				 M313.204,766.698v7.493c0,0.52-0.124,0.913-0.371,1.179c-0.247,0.266-0.56,0.398-0.94,0.398s-0.689-0.136-0.926-0.408
				c-0.238-0.273-0.356-0.662-0.356-1.169v-7.418c0-0.512,0.118-0.898,0.356-1.158c0.237-0.26,0.546-0.39,0.926-0.39
				s0.693,0.13,0.94,0.39C313.081,765.875,313.204,766.236,313.204,766.698z"/>
			<path style="fill:#FFFFFF;" d="M324.563,767.125v7.531c0,0.861-0.093,1.602-0.277,2.224c-0.182,0.619-0.477,1.133-0.883,1.538
				c-0.405,0.404-0.936,0.706-1.59,0.901c-0.655,0.197-1.471,0.295-2.446,0.295c-0.893,0-1.69-0.125-2.393-0.375
				c-0.702-0.251-1.243-0.573-1.624-0.969c-0.379-0.396-0.57-0.803-0.57-1.221c0-0.316,0.108-0.575,0.324-0.773
				c0.215-0.2,0.475-0.3,0.778-0.3c0.38,0,0.712,0.168,0.997,0.503c0.139,0.171,0.283,0.345,0.432,0.519
				c0.149,0.175,0.314,0.323,0.494,0.447c0.181,0.122,0.398,0.214,0.65,0.274c0.253,0.059,0.545,0.09,0.874,0.09
				c0.671,0,1.192-0.093,1.563-0.28c0.371-0.186,0.63-0.448,0.779-0.784c0.149-0.334,0.236-0.693,0.261-1.077
				c0.025-0.384,0.044-0.999,0.057-1.849c-0.399,0.559-0.859,0.983-1.382,1.274c-0.522,0.291-1.145,0.437-1.866,0.437
				c-0.868,0-1.625-0.222-2.275-0.665c-0.648-0.443-1.147-1.063-1.495-1.861c-0.349-0.799-0.522-1.719-0.522-2.764
				c0-0.778,0.105-1.482,0.317-2.108c0.213-0.628,0.515-1.156,0.907-1.587c0.393-0.431,0.845-0.755,1.358-0.974
				c0.513-0.218,1.076-0.327,1.691-0.327c0.734,0,1.371,0.142,1.909,0.422c0.538,0.283,1.039,0.725,1.501,1.326v-0.352
				c0-0.449,0.11-0.797,0.332-1.045c0.222-0.246,0.507-0.37,0.855-0.37c0.5,0,0.832,0.164,0.997,0.489
				C324.48,766.041,324.563,766.511,324.563,767.125z M317.05,770.412c0,1.051,0.229,1.846,0.688,2.384
				c0.459,0.539,1.053,0.808,1.781,0.808c0.43,0,0.837-0.116,1.22-0.347c0.384-0.232,0.695-0.58,0.937-1.045
				c0.24-0.466,0.361-1.03,0.361-1.695c0-1.057-0.232-1.881-0.698-2.469c-0.466-0.589-1.078-0.884-1.838-0.884
				c-0.741,0-1.334,0.282-1.78,0.846C317.273,768.572,317.05,769.374,317.05,770.412z"/>
			<path style="fill:#FFFFFF;" d="M328.684,766.66v0.313c0.455-0.602,0.954-1.043,1.496-1.325c0.542-0.281,1.163-0.423,1.866-0.423
				c0.684,0,1.295,0.149,1.833,0.447c0.538,0.298,0.941,0.719,1.206,1.262c0.172,0.317,0.282,0.66,0.333,1.026
				c0.051,0.368,0.077,0.836,0.077,1.406v4.824c0,0.52-0.119,0.913-0.357,1.179c-0.237,0.266-0.546,0.398-0.926,0.398
				c-0.387,0-0.7-0.136-0.941-0.408c-0.241-0.273-0.361-0.662-0.361-1.169v-4.321c0-0.854-0.119-1.509-0.357-1.961
				c-0.238-0.452-0.71-0.68-1.42-0.68c-0.461,0-0.883,0.138-1.263,0.413c-0.38,0.276-0.659,0.655-0.836,1.136
				c-0.126,0.387-0.19,1.107-0.19,2.165v3.248c0,0.525-0.123,0.921-0.365,1.184c-0.244,0.263-0.559,0.394-0.945,0.394
				c-0.374,0-0.681-0.136-0.922-0.408c-0.24-0.273-0.361-0.662-0.361-1.169v-7.493c0-0.494,0.107-0.863,0.323-1.107
				c0.215-0.243,0.51-0.365,0.883-0.365c0.229,0,0.435,0.054,0.619,0.162c0.183,0.108,0.331,0.269,0.441,0.483
				C328.629,766.086,328.684,766.35,328.684,766.66z"/>
			<path style="fill:#FFFFFF;" d="M344.458,771.134h-5.071c0.007,0.588,0.125,1.107,0.356,1.557c0.231,0.45,0.538,0.789,0.921,1.017
				c0.382,0.229,0.805,0.341,1.267,0.341c0.311,0,0.594-0.035,0.851-0.107c0.255-0.074,0.504-0.187,0.746-0.343
				c0.24-0.154,0.461-0.321,0.665-0.499c0.202-0.178,0.464-0.419,0.788-0.723c0.133-0.113,0.323-0.171,0.57-0.171
				c0.266,0,0.482,0.074,0.646,0.22c0.165,0.146,0.247,0.351,0.247,0.617c0,0.234-0.091,0.507-0.275,0.821
				c-0.184,0.314-0.461,0.614-0.831,0.902c-0.371,0.288-0.835,0.526-1.396,0.717c-0.561,0.19-1.205,0.285-1.933,0.285
				c-1.665,0-2.96-0.476-3.885-1.425c-0.923-0.949-1.386-2.238-1.386-3.865c0-0.767,0.114-1.478,0.342-2.132
				c0.228-0.656,0.561-1.218,0.998-1.686c0.436-0.469,0.975-0.827,1.614-1.078c0.639-0.25,1.349-0.374,2.128-0.374
				c1.013,0,1.881,0.212,2.606,0.641c0.726,0.427,1.269,0.979,1.63,1.656c0.36,0.678,0.542,1.369,0.542,2.07
				c0,0.653-0.186,1.075-0.56,1.269C345.662,771.037,345.136,771.134,344.458,771.134z M339.387,769.662h4.701
				c-0.063-0.887-0.302-1.551-0.717-1.99c-0.415-0.44-0.961-0.66-1.638-0.66c-0.646,0-1.177,0.223-1.592,0.669
				C339.726,768.127,339.476,768.788,339.387,769.662z"/>
			<path style="fill:#FFFFFF;" d="M355.028,774.287v-0.257c-0.348,0.398-0.691,0.724-1.03,0.973
				c-0.339,0.251-0.706,0.441-1.102,0.57c-0.395,0.132-0.828,0.195-1.296,0.195c-0.622,0-1.196-0.131-1.724-0.394
				c-0.529-0.263-0.986-0.639-1.373-1.126c-0.387-0.487-0.679-1.06-0.878-1.719c-0.2-0.659-0.299-1.371-0.299-2.137
				c0-1.621,0.395-2.886,1.187-3.791c0.792-0.904,1.833-1.357,3.125-1.357c0.747,0,1.378,0.129,1.89,0.384
				c0.513,0.257,1.013,0.652,1.5,1.183v-3.827c0-0.532,0.106-0.934,0.319-1.206c0.211-0.273,0.515-0.408,0.907-0.408
				c0.392,0,0.694,0.125,0.907,0.375c0.212,0.251,0.318,0.618,0.318,1.106v11.436c0,0.494-0.114,0.864-0.342,1.111
				c-0.228,0.246-0.522,0.37-0.883,0.37c-0.354,0-0.647-0.128-0.879-0.384C355.144,775.127,355.028,774.761,355.028,774.287z
				 M349.928,770.478c0,0.703,0.108,1.301,0.327,1.795c0.218,0.494,0.518,0.866,0.898,1.115c0.379,0.251,0.794,0.377,1.243,0.377
				c0.457,0,0.873-0.119,1.249-0.357c0.377-0.236,0.678-0.602,0.902-1.091c0.225-0.491,0.337-1.105,0.337-1.839
				c0-0.69-0.112-1.284-0.337-1.782c-0.224-0.496-0.528-0.876-0.912-1.14c-0.384-0.262-0.803-0.393-1.259-0.393
				c-0.474,0-0.899,0.135-1.272,0.403c-0.373,0.269-0.663,0.654-0.869,1.158C350.03,769.229,349.928,769.813,349.928,770.478z"/>
			<path style="fill:#FFFFFF;" d="M365.626,762.851v3.96c0.487-0.506,0.984-0.895,1.491-1.163c0.506-0.269,1.134-0.403,1.881-0.403
				c0.861,0,1.616,0.204,2.266,0.611c0.648,0.41,1.151,1.002,1.51,1.777c0.357,0.774,0.537,1.695,0.537,2.76
				c0,0.785-0.1,1.504-0.299,2.16c-0.2,0.655-0.49,1.224-0.869,1.704c-0.38,0.481-0.841,0.854-1.382,1.117
				c-0.542,0.263-1.139,0.394-1.79,0.394c-0.4,0-0.775-0.047-1.126-0.143c-0.352-0.095-0.651-0.219-0.898-0.375
				c-0.246-0.154-0.457-0.314-0.631-0.479c-0.174-0.164-0.404-0.412-0.689-0.741v0.257c0,0.487-0.117,0.856-0.352,1.107
				c-0.233,0.25-0.531,0.374-0.893,0.374c-0.367,0-0.66-0.124-0.878-0.374c-0.219-0.251-0.328-0.62-0.328-1.107v-11.322
				c0-0.525,0.106-0.923,0.317-1.191c0.212-0.269,0.509-0.403,0.889-0.403c0.399,0,0.706,0.128,0.921,0.384
				C365.518,762.011,365.626,762.375,365.626,762.851z M365.75,770.554c0,1.032,0.236,1.824,0.708,2.378
				c0.472,0.555,1.091,0.833,1.857,0.833c0.652,0,1.214-0.283,1.686-0.851c0.472-0.567,0.708-1.379,0.708-2.437
				c0-0.684-0.097-1.273-0.294-1.767c-0.197-0.494-0.475-0.876-0.835-1.145c-0.361-0.268-0.783-0.403-1.264-0.403
				c-0.494,0-0.935,0.135-1.32,0.403c-0.386,0.269-0.69,0.658-0.912,1.168C365.861,769.244,365.75,769.851,365.75,770.554z"/>
			<path style="fill:#FFFFFF;" d="M376.672,776.091l0.237-0.58l-3.191-8.035c-0.196-0.461-0.295-0.798-0.295-1.007
				c0-0.222,0.058-0.427,0.171-0.616c0.114-0.19,0.271-0.343,0.47-0.456c0.2-0.115,0.407-0.172,0.623-0.172
				c0.373,0,0.655,0.119,0.846,0.357c0.19,0.237,0.357,0.577,0.503,1.021l2.194,6.383l2.08-5.937
				c0.164-0.479,0.313-0.857,0.446-1.13c0.133-0.273,0.273-0.456,0.422-0.55c0.148-0.096,0.359-0.144,0.632-0.144
				c0.197,0,0.385,0.052,0.565,0.157c0.18,0.104,0.319,0.245,0.417,0.423c0.098,0.177,0.148,0.363,0.148,0.56
				c-0.026,0.12-0.066,0.291-0.124,0.514c-0.058,0.221-0.126,0.447-0.208,0.674l-3.381,8.852c-0.292,0.778-0.577,1.389-0.855,1.832
				c-0.279,0.443-0.647,0.785-1.106,1.021c-0.46,0.238-1.078,0.357-1.857,0.357c-0.759,0-1.33-0.082-1.708-0.246
				c-0.381-0.166-0.57-0.467-0.57-0.903c0-0.297,0.089-0.527,0.271-0.688c0.18-0.161,0.448-0.243,0.801-0.243
				c0.14,0,0.276,0.02,0.409,0.059c0.164,0.037,0.307,0.057,0.427,0.057c0.297,0,0.532-0.044,0.704-0.134
				c0.17-0.088,0.324-0.241,0.46-0.461C376.337,776.837,376.495,776.515,376.672,776.091z"/>
		</g>
		<g>
			<path style="fill:#FFFFFF;" d="M414.235,765.45h0.618v-0.778c0-0.814,0.1-1.457,0.307-1.938c0.204-0.479,0.556-0.826,1.047-1.045
				c0.49-0.217,1.163-0.326,2.017-0.326c1.52,0,2.273,0.367,2.273,1.114c0,0.238-0.079,0.444-0.24,0.615
				c-0.154,0.169-0.343,0.256-0.558,0.256c-0.1,0-0.278-0.019-0.527-0.06c-0.237-0.033-0.452-0.056-0.623-0.056
				c-0.468,0-0.767,0.141-0.905,0.415c-0.127,0.275-0.195,0.669-0.195,1.185v0.617h0.633c0.991,0,1.481,0.297,1.481,0.895
				c0,0.419-0.127,0.69-0.393,0.805c-0.262,0.114-0.624,0.171-1.089,0.171h-0.633v6.871c0,0.511-0.12,0.9-0.369,1.168
				c-0.241,0.272-0.554,0.406-0.942,0.406c-0.367,0-0.671-0.134-0.918-0.406c-0.244-0.268-0.364-0.657-0.364-1.168v-6.871h-0.714
				c-0.389,0-0.683-0.084-0.893-0.262c-0.209-0.171-0.315-0.399-0.315-0.678C412.931,765.757,413.366,765.45,414.235,765.45"/>
			<path style="fill:#FFFFFF;" d="M422.724,772.024v2.168c0,0.523-0.133,0.919-0.374,1.18c-0.247,0.266-0.559,0.395-0.938,0.395
				c-0.382,0-0.688-0.131-0.927-0.4c-0.236-0.264-0.36-0.656-0.36-1.174v-7.223c0-1.166,0.42-1.749,1.261-1.749
				c0.434,0,0.743,0.135,0.934,0.408c0.19,0.273,0.295,0.674,0.317,1.208c0.308-0.534,0.624-0.935,0.948-1.208
				c0.332-0.273,0.763-0.408,1.31-0.408c0.549,0,1.072,0.135,1.585,0.408c0.516,0.273,0.771,0.637,0.771,1.085
				c0,0.315-0.11,0.58-0.326,0.781c-0.22,0.209-0.454,0.312-0.706,0.312c-0.1,0-0.331-0.063-0.692-0.18
				c-0.365-0.113-0.688-0.173-0.963-0.173c-0.38,0-0.692,0.103-0.932,0.298c-0.242,0.205-0.431,0.497-0.564,0.887
				c-0.129,0.395-0.219,0.865-0.272,1.404C422.747,770.584,422.724,771.246,422.724,772.024"/>
			<path style="fill:#FFFFFF;" d="M434.645,771.131h-5.074c0.009,0.588,0.124,1.11,0.354,1.559c0.235,0.446,0.54,0.786,0.925,1.017
				c0.385,0.227,0.804,0.34,1.268,0.34c0.311,0,0.593-0.033,0.85-0.111c0.254-0.069,0.505-0.186,0.745-0.341
				c0.242-0.152,0.46-0.318,0.664-0.5c0.202-0.175,0.467-0.416,0.79-0.719c0.135-0.113,0.324-0.174,0.568-0.174
				c0.269,0,0.481,0.074,0.649,0.222c0.166,0.147,0.243,0.351,0.243,0.617c0,0.235-0.089,0.508-0.268,0.819
				c-0.188,0.317-0.463,0.616-0.836,0.906c-0.374,0.285-0.839,0.527-1.398,0.714c-0.559,0.19-1.206,0.286-1.932,0.286
				c-1.671,0-2.964-0.473-3.887-1.422c-0.924-0.952-1.392-2.242-1.392-3.868c0-0.767,0.117-1.478,0.348-2.135
				c0.225-0.658,0.558-1.216,0.999-1.688c0.436-0.471,0.97-0.828,1.612-1.078c0.638-0.249,1.347-0.374,2.128-0.374
				c1.011,0,1.881,0.214,2.606,0.646c0.724,0.423,1.273,0.977,1.629,1.654c0.361,0.681,0.542,1.368,0.542,2.074
				c0,0.648-0.189,1.07-0.562,1.266C435.847,771.035,435.323,771.131,434.645,771.131 M429.571,769.657h4.701
				c-0.063-0.885-0.298-1.55-0.714-1.986c-0.418-0.442-0.959-0.66-1.641-0.66c-0.645,0-1.177,0.22-1.592,0.669
				C429.912,768.125,429.658,768.784,429.571,769.657"/>
			<path style="fill:#FFFFFF;" d="M445.432,771.131h-5.073c0.006,0.588,0.125,1.11,0.355,1.559c0.231,0.446,0.539,0.786,0.921,1.017
				c0.383,0.227,0.806,0.34,1.271,0.34c0.308,0,0.593-0.033,0.845-0.111c0.259-0.069,0.506-0.186,0.75-0.341
				c0.242-0.152,0.46-0.318,0.664-0.5c0.199-0.175,0.464-0.416,0.788-0.719c0.135-0.113,0.326-0.174,0.568-0.174
				c0.268,0,0.483,0.074,0.65,0.222c0.165,0.147,0.24,0.351,0.24,0.617c0,0.235-0.087,0.508-0.273,0.819
				c-0.177,0.317-0.455,0.616-0.83,0.906c-0.37,0.285-0.84,0.527-1.396,0.714c-0.558,0.19-1.208,0.286-1.935,0.286
				c-1.667,0-2.959-0.473-3.887-1.422c-0.924-0.952-1.389-2.242-1.389-3.868c0-0.767,0.116-1.478,0.348-2.135
				c0.227-0.658,0.559-1.216,0.996-1.688c0.436-0.471,0.973-0.828,1.614-1.078c0.638-0.249,1.351-0.374,2.129-0.374
				c1.009,0,1.878,0.214,2.613,0.646c0.72,0.423,1.266,0.977,1.621,1.654c0.359,0.681,0.545,1.368,0.545,2.074
				c0,0.648-0.191,1.07-0.561,1.266C446.632,771.035,446.108,771.131,445.432,771.131 M440.359,769.657h4.701
				c-0.063-0.885-0.304-1.55-0.715-1.986c-0.421-0.442-0.962-0.66-1.643-0.66c-0.646,0-1.176,0.22-1.593,0.669
				C440.697,768.125,440.443,768.784,440.359,769.657"/>
			<path style="fill:#FFFFFF;" d="M451.112,766.679v0.311c0.486-0.601,0.994-1.042,1.524-1.324c0.519-0.284,1.118-0.427,1.782-0.427
				c0.795,0,1.535,0.208,2.207,0.617c0.671,0.414,1.198,1.016,1.589,1.807c0.39,0.795,0.586,1.729,0.586,2.813
				c0,0.796-0.112,1.531-0.336,2.201c-0.224,0.668-0.537,1.227-0.929,1.68c-0.394,0.45-0.855,0.802-1.39,1.046
				c-0.542,0.241-1.111,0.363-1.728,0.363c-0.738,0-1.364-0.148-1.865-0.447c-0.503-0.292-0.982-0.733-1.441-1.306v3.893
				c0,1.136-0.416,1.71-1.244,1.71c-0.49,0-0.809-0.146-0.972-0.44c-0.151-0.299-0.233-0.724-0.233-1.291v-11.193
				c0-0.495,0.106-0.859,0.32-1.107c0.215-0.239,0.512-0.364,0.885-0.364c0.369,0,0.666,0.125,0.895,0.374
				C450.999,765.848,451.112,766.205,451.112,766.679 M456.196,770.447c0-0.684-0.107-1.273-0.315-1.763
				c-0.209-0.492-0.499-0.867-0.866-1.128c-0.367-0.263-0.782-0.396-1.232-0.396c-0.714,0-1.318,0.284-1.809,0.844
				c-0.492,0.566-0.739,1.396-0.739,2.493c0,1.026,0.244,1.833,0.735,2.406c0.487,0.573,1.086,0.858,1.813,0.858
				c0.429,0,0.83-0.126,1.197-0.372c0.371-0.253,0.665-0.627,0.884-1.127C456.085,771.76,456.196,771.155,456.196,770.447"/>
			<path style="fill:#FFFFFF;" d="M461.412,764.013c-0.362,0-0.669-0.114-0.923-0.335c-0.26-0.223-0.388-0.532-0.388-0.937
				c0-0.368,0.131-0.67,0.396-0.91c0.262-0.234,0.566-0.356,0.914-0.356c0.34,0,0.636,0.107,0.894,0.319
				c0.26,0.219,0.391,0.534,0.391,0.946c0,0.399-0.127,0.711-0.378,0.936C462.064,763.899,461.763,764.013,461.412,764.013
				 M462.696,766.692v7.502c0,0.516-0.124,0.908-0.37,1.172c-0.25,0.27-0.561,0.4-0.941,0.4c-0.381,0-0.685-0.134-0.928-0.406
				c-0.233-0.276-0.355-0.665-0.355-1.166v-7.428c0-0.51,0.122-0.895,0.355-1.154c0.243-0.265,0.547-0.392,0.928-0.392
				c0.381,0,0.691,0.127,0.941,0.392C462.572,765.872,462.696,766.234,462.696,766.692"/>
			<path style="fill:#FFFFFF;" d="M471.055,774.583l-2.284-3.766l-1.408,1.328v2.065c0,0.499-0.133,0.882-0.396,1.149
				c-0.257,0.272-0.566,0.406-0.906,0.406c-0.398,0-0.715-0.131-0.94-0.4c-0.227-0.264-0.344-0.656-0.344-1.174v-11.063
				c0-0.573,0.114-1.011,0.331-1.313c0.223-0.305,0.545-0.452,0.953-0.452c0.4,0,0.713,0.137,0.949,0.411
				c0.234,0.271,0.353,0.674,0.353,1.202v6.293l2.916-3.063c0.362-0.376,0.633-0.641,0.827-0.778
				c0.189-0.139,0.419-0.208,0.689-0.208c0.326,0,0.594,0.104,0.815,0.309c0.211,0.206,0.32,0.466,0.32,0.773
				c0,0.379-0.353,0.889-1.055,1.521l-1.377,1.263l2.659,4.183c0.193,0.313,0.339,0.544,0.424,0.706
				c0.084,0.159,0.13,0.319,0.13,0.462c0,0.413-0.114,0.734-0.341,0.976c-0.225,0.236-0.524,0.354-0.886,0.354
				c-0.316,0-0.564-0.081-0.733-0.256C471.582,775.337,471.345,775.027,471.055,774.583"/>
			<path style="fill:#FFFFFF;" d="M476.691,775.766c-0.392,0-0.728-0.126-1.014-0.381c-0.284-0.249-0.429-0.606-0.429-1.065
				c0-0.386,0.138-0.719,0.41-0.995c0.274-0.279,0.607-0.419,1.008-0.419c0.397,0,0.735,0.14,1.022,0.412
				c0.279,0.275,0.422,0.612,0.422,1.002c0,0.452-0.143,0.808-0.422,1.06C477.402,775.64,477.07,775.766,476.691,775.766"/>
			<path style="fill:#FFFFFF;" d="M489.589,772.556c0,0.32-0.097,0.668-0.291,1.034c-0.191,0.37-0.488,0.718-0.886,1.05
				c-0.395,0.332-0.892,0.602-1.495,0.804c-0.601,0.202-1.28,0.307-2.03,0.307c-1.607,0-2.858-0.47-3.758-1.401
				c-0.896-0.936-1.346-2.189-1.346-3.76c0-1.067,0.204-2.006,0.619-2.824c0.407-0.815,1.004-1.447,1.781-1.894
				c0.779-0.448,1.716-0.67,2.794-0.67c0.674,0,1.288,0.098,1.853,0.295c0.561,0.195,1.032,0.451,1.425,0.759
				c0.387,0.315,0.685,0.644,0.89,0.992c0.207,0.352,0.308,0.681,0.308,0.987c0,0.308-0.113,0.571-0.343,0.787
				c-0.235,0.215-0.516,0.324-0.839,0.324c-0.219,0-0.397-0.057-0.541-0.166c-0.144-0.112-0.305-0.29-0.479-0.542
				c-0.317-0.478-0.646-0.842-0.996-1.079c-0.343-0.243-0.78-0.362-1.314-0.362c-0.762,0-1.384,0.298-1.854,0.898
				c-0.468,0.596-0.703,1.42-0.703,2.454c0,0.488,0.063,0.939,0.183,1.348c0.117,0.407,0.291,0.756,0.52,1.044
				c0.23,0.287,0.504,0.505,0.826,0.654c0.324,0.153,0.681,0.226,1.064,0.226c0.521,0,0.967-0.12,1.337-0.36
				c0.376-0.241,0.702-0.607,0.986-1.102c0.158-0.291,0.327-0.518,0.509-0.684c0.183-0.163,0.409-0.249,0.676-0.249
				c0.316,0,0.58,0.123,0.786,0.362C489.483,772.027,489.589,772.286,489.589,772.556"/>
			<path style="fill:#FFFFFF;" d="M500.78,770.496c0,0.769-0.122,1.484-0.355,2.139c-0.247,0.652-0.592,1.213-1.05,1.679
				c-0.455,0.469-1.002,0.828-1.632,1.08c-0.64,0.247-1.35,0.375-2.139,0.375c-0.785,0-1.493-0.128-2.121-0.383
				c-0.623-0.249-1.171-0.614-1.626-1.082c-0.461-0.477-0.809-1.034-1.052-1.677c-0.23-0.644-0.351-1.355-0.351-2.131
				c0-0.786,0.124-1.506,0.358-2.158c0.242-0.654,0.589-1.212,1.039-1.673c0.451-0.462,0.993-0.817,1.631-1.07
				c0.644-0.249,1.35-0.374,2.121-0.374c0.784,0,1.498,0.125,2.139,0.382c0.638,0.251,1.183,0.614,1.643,1.079
				c0.458,0.475,0.803,1.029,1.04,1.672C500.66,769.004,500.78,769.713,500.78,770.496 M498.176,770.496
				c0-1.059-0.234-1.881-0.698-2.469c-0.463-0.596-1.09-0.888-1.874-0.888c-0.508,0-0.955,0.132-1.343,0.394
				c-0.387,0.262-0.681,0.649-0.89,1.164c-0.209,0.514-0.316,1.113-0.316,1.799c0,0.679,0.103,1.267,0.31,1.773
				c0.208,0.511,0.502,0.897,0.886,1.166c0.386,0.267,0.835,0.404,1.353,0.404c0.784,0,1.411-0.296,1.874-0.892
				C497.942,772.357,498.176,771.537,498.176,770.496"/>
			<path style="fill:#FFFFFF;" d="M510.671,770.686v3.446c0,0.547-0.12,0.951-0.369,1.228c-0.25,0.272-0.571,0.408-0.977,0.408
				c-0.393,0-0.714-0.136-0.951-0.408c-0.247-0.276-0.372-0.681-0.372-1.228v-4.131c0-0.653-0.021-1.162-0.063-1.524
				c-0.046-0.354-0.168-0.655-0.362-0.883c-0.196-0.235-0.509-0.352-0.931-0.352c-0.851,0-1.407,0.29-1.677,0.881
				c-0.268,0.576-0.406,1.413-0.406,2.507v3.502c0,0.538-0.122,0.946-0.361,1.224c-0.249,0.273-0.567,0.412-0.965,0.412
				c-0.395,0-0.717-0.139-0.967-0.412c-0.252-0.277-0.376-0.686-0.376-1.224v-7.419c0-0.489,0.111-0.86,0.335-1.111
				c0.229-0.257,0.526-0.382,0.89-0.382c0.356,0,0.651,0.123,0.892,0.355c0.236,0.238,0.354,0.566,0.354,0.984v0.245
				c0.453-0.535,0.935-0.932,1.444-1.181c0.517-0.26,1.082-0.386,1.713-0.386c0.651,0,1.211,0.131,1.678,0.39
				c0.47,0.261,0.853,0.655,1.16,1.177c0.439-0.528,0.909-0.923,1.41-1.181c0.5-0.257,1.053-0.386,1.662-0.386
				c0.706,0,1.321,0.143,1.834,0.419c0.51,0.278,0.893,0.68,1.148,1.195c0.221,0.473,0.33,1.21,0.33,2.217v5.063
				c0,0.547-0.122,0.951-0.367,1.228c-0.246,0.272-0.575,0.408-0.979,0.408c-0.395,0-0.714-0.139-0.965-0.412
				c-0.25-0.277-0.376-0.686-0.376-1.224v-4.361c0-0.559-0.023-1.003-0.069-1.338c-0.047-0.337-0.177-0.62-0.383-0.847
				c-0.212-0.228-0.53-0.344-0.953-0.344c-0.342,0-0.666,0.107-0.974,0.308c-0.307,0.198-0.547,0.477-0.721,0.813
				C510.77,768.801,510.671,769.576,510.671,770.686"/>
		</g>
		<g>
			<path style="fill:#FFFFFF;" d="M389.967,769.868c-0.002-0.005-0.002-0.01-0.002-0.018
				C389.965,769.858,389.965,769.863,389.967,769.868z"/>
			<path style="fill:#FFFFFF;" d="M390.098,770.697c0.002,0,0.002,0,0.003,0c-0.05-0.236-0.088-0.471-0.119-0.702
				C390.012,770.228,390.051,770.463,390.098,770.697z"/>
			<path style="fill:#FFFFFF;" d="M390.956,773.103c-0.006-0.01-0.011-0.021-0.017-0.033
				C390.945,773.082,390.95,773.093,390.956,773.103z"/>
			<path style="fill:#FFFFFF;" d="M390.874,772.943c-0.022-0.044-0.044-0.09-0.065-0.134
				C390.83,772.856,390.852,772.899,390.874,772.943z"/>
			<path style="fill:#FFFFFF;" d="M390.339,771.624c0.127,0.4,0.28,0.788,0.457,1.158c-0.18-0.378-0.33-0.767-0.454-1.158
				C390.341,771.624,390.34,771.624,390.339,771.624z"/>
			<path style="fill:#FFFFFF;" d="M400.004,759.931c0.501,0,0.871,0.04,1.295,0.111l0.12-0.763c0,0-1.171-0.36-2.71-0.234
				l-0.121-0.415c0.479-0.101,0.838-0.526,0.838-1.034c0-0.582-0.474-1.054-1.057-1.054c-0.583,0-1.056,0.472-1.056,1.054
				c0,0.508,0.358,0.934,0.836,1.034l0.134,0.463c-1.634,0.225-2.935,0.862-2.935,0.862l0.23,0.705
				c0.989-0.329,1.846-0.529,2.624-0.613C398.964,759.966,399.537,759.931,400.004,759.931z"/>
			<path style="fill:#FFFFFF;" d="M390.936,763.79l0.006-0.008c0.039-0.05,0.076-0.097,0.113-0.143l-0.313-0.226l-0.488-0.356
				c-0.027,0.038-0.795,0.744-1.401,2.048c-0.025-0.041-0.056-0.081-0.09-0.119c-0.182-0.198-0.436-0.3-0.758-0.294
				c-0.004,0-0.009,0-0.015,0c-0.2,0-0.337-0.066-0.427-0.147c0.089-0.113,0.143-0.256,0.143-0.413c0-0.368-0.3-0.669-0.669-0.669
				c-0.369,0-0.668,0.301-0.668,0.669c0,0.37,0.3,0.669,0.668,0.669c0.058,0,0.113-0.01,0.167-0.021
				c0.165,0.183,0.425,0.342,0.808,0.334c0.197-0.002,0.341,0.049,0.438,0.155c0.111,0.121,0.148,0.296,0.16,0.428
				c-0.001,0.002-0.001,0.005-0.003,0.005c-0.435,1.189-0.311,2.67-0.311,2.67l1.057,0.042c0.021-0.539,0.099-1.482,0.372-2.23
				C390.25,764.734,390.91,763.828,390.936,763.79z"/>
			<path style="fill:#FFFFFF;" d="M409.204,760.815c-0.368,0-0.669,0.299-0.669,0.669c0,0.058,0.009,0.112,0.023,0.165
				c-0.184,0.166-0.343,0.428-0.337,0.81c0.003,0.197-0.048,0.34-0.154,0.437c-0.085,0.075-0.191,0.115-0.296,0.141
				c-0.787-1.103-1.756-1.775-1.756-1.775l-0.759,0.814c0.573,0.521,1.159,1.175,1.729,1.99c0.394,0.563,0.799,1.29,1.136,2.015
				l1.024-0.486c0,0-0.468-1.155-1.126-2.191c0.114-0.04,0.23-0.103,0.331-0.192c0.2-0.181,0.299-0.436,0.293-0.758
				c-0.002-0.208,0.066-0.349,0.148-0.441c0.114,0.087,0.257,0.143,0.412,0.143c0.371,0,0.67-0.3,0.67-0.669
				C409.874,761.114,409.575,760.815,409.204,760.815z"/>
			<path style="fill:#FFFFFF;" d="M406.546,770.017c-1.409,0.687-3.728,1.594-6.781,2.02c-1.198,0.166-2.359,0.228-3.428,0.228
				c-1.391,0-2.62-0.104-3.563-0.223c-1.076-0.136-1.917-0.302-2.432-0.418c0.124,0.392,0.273,0.78,0.454,1.158
				c0.003,0.01,0.008,0.021,0.013,0.027c0.022,0.044,0.043,0.09,0.065,0.134c0.022,0.044,0.043,0.087,0.065,0.127
				c0.006,0.012,0.011,0.023,0.017,0.033c0.303,0.57,0.667,1.095,1.081,1.549c1.44,1.575,2.907,1.824,2.921,1.826l0.023,0.003
				l0.021,0.008c0.013,0.005,1.314,0.425,3.292,0.425c1.945,0,3.854-0.393,5.674-1.167c1.348-0.689,2.622-1.736,3.254-2.67
				c0.488-0.723,0.841-1.493,1.05-2.294c0.111-0.426,0.199-1.107,0.147-1.825C408.022,769.224,407.395,769.604,406.546,770.017z"/>
			<path style="fill:#FFFFFF;" d="M391.389,764.124c-0.041,0.06-0.652,0.925-1.135,2.253c-0.362,0.995-0.346,2.443-0.346,2.46v0.003
				c0,0.34,0.019,0.677,0.057,1.011c0,0.008,0,0.013,0.002,0.018c0.004,0.043,0.011,0.084,0.015,0.127
				c0.03,0.231,0.069,0.466,0.119,0.702c0.7,0.178,4.878,1.152,9.548,0.502c2.927-0.407,5.149-1.273,6.499-1.927
				c1.121-0.544,1.842-1.036,2.12-1.238c-0.277-1.028-1.042-2.641-1.743-3.646c-2.005-2.865-4.167-3.601-5.277-3.783
				c-0.424-0.069-0.763-0.109-1.243-0.109c-0.447,0-1.002,0.036-1.743,0.114c-0.743,0.077-1.572,0.273-2.532,0.596
				c-1.348,0.451-2.567,1.159-3.527,2.048l-0.033,0.03C392.027,763.414,391.73,763.689,391.389,764.124z M403.659,763.457
				c0.961,0,1.743,0.781,1.743,1.743c0,0.962-0.782,1.744-1.743,1.744c-0.962,0-1.742-0.782-1.742-1.744
				C401.917,764.238,402.697,763.457,403.659,763.457z M395.417,763.387c1.557,0,2.817,1.262,2.817,2.817
				c0,1.556-1.26,2.815-2.817,2.815c-1.555,0-2.816-1.259-2.816-2.815C392.601,764.649,393.862,763.387,395.417,763.387z"/>
		</g>
	</g>
</g>
</svg>
